<svg width="40" height="40" viewBox="0 0 40 40" fill="none" xmlns="http://www.w3.org/2000/svg">
<g clip-path="url(#clip0_77_332)">
<path d="M20 40C31.0457 40 40 31.0457 40 20C40 8.9543 31.0457 0 20 0C8.9543 0 0 8.9543 0 20C0 31.0457 8.9543 40 20 40Z" fill="white"/>
<path d="M27.4402 28.5C25.5557 28.5 23.6625 28.0618 21.7605 27.1855C19.8587 26.3092 18.1097 25.073 16.5135 23.477C14.9238 21.8808 13.6908 20.1333 12.8145 18.2345C11.9382 16.3358 11.5 14.4443 11.5 12.5598C11.5 12.2598 11.6 12.0081 11.8 11.8048C12 11.6016 12.25 11.5 12.55 11.5H15.8115C16.064 11.5 16.2868 11.5824 16.4798 11.7473C16.6727 11.9119 16.7955 12.1154 16.848 12.3577L17.4213 15.3C17.4609 15.573 17.4526 15.8076 17.3963 16.0038C17.3398 16.1999 17.2384 16.3647 17.0923 16.498L14.7827 18.7462C15.1544 19.4269 15.5791 20.0708 16.0567 20.678C16.5342 21.285 17.0512 21.8647 17.6077 22.4173C18.1564 22.9661 18.7397 23.4757 19.3577 23.9462C19.9757 24.4167 20.6431 24.8546 21.3598 25.2598L23.6038 22.9963C23.7603 22.8334 23.9498 22.7192 24.1723 22.6538C24.3946 22.5884 24.6257 22.5724 24.8655 22.6058L27.6423 23.1713C27.8948 23.2379 28.1008 23.3667 28.2605 23.5577C28.4202 23.7487 28.5 23.9654 28.5 24.2078V27.45C28.5 27.75 28.3984 28 28.1952 28.2C27.9919 28.4 27.7402 28.5 27.4402 28.5Z" fill="black"/>
</g>
<defs>
<clipPath id="clip0_77_332">
<rect width="40" height="40" fill="white"/>
</clipPath>
</defs>
</svg>
