<svg width="40" height="40" viewBox="0 0 40 40" fill="none" xmlns="http://www.w3.org/2000/svg">
<g clip-path="url(#clip0_77_347)">
<path d="M20 40C31.0457 40 40 31.0457 40 20C40 8.9543 31.0457 0 20 0C8.9543 0 0 8.9543 0 20C0 31.0457 8.9543 40 20 40Z" fill="white"/>
<path d="M15 11.5H25C26.933 11.5 28.5 13.067 28.5 15V25C28.5 26.933 26.933 28.5 25 28.5H15C13.067 28.5 11.5 26.933 11.5 25V15C11.5 13.067 13.067 11.5 15 11.5Z" fill="white" stroke="black"/>
<path d="M25 11.5H15C13.067 11.5 11.5 13.067 11.5 15V25C11.5 26.933 13.067 28.5 15 28.5H25C26.933 28.5 28.5 26.933 28.5 25V15C28.5 13.067 26.933 11.5 25 11.5Z" stroke="black"/>
<path d="M20 25C22.7614 25 25 22.7614 25 20C25 17.2386 22.7614 15 20 15C17.2386 15 15 17.2386 15 20C15 22.7614 17.2386 25 20 25Z" fill="black"/>
<path d="M25.5 16C26.3284 16 27 15.3284 27 14.5C27 13.6716 26.3284 13 25.5 13C24.6716 13 24 13.6716 24 14.5C24 15.3284 24.6716 16 25.5 16Z" fill="black"/>
</g>
<defs>
<clipPath id="clip0_77_347">
<rect width="40" height="40" fill="white"/>
</clipPath>
</defs>
</svg>
