<svg width="40" height="40" viewBox="0 0 40 40" fill="none" xmlns="http://www.w3.org/2000/svg">
<g clip-path="url(#clip0_77_355)">
<path d="M20 40C31.0457 40 40 31.0457 40 20C40 8.9543 31.0457 0 20 0C8.9543 0 0 8.9543 0 20C0 31.0457 8.9543 40 20 40Z" fill="white"/>
<path d="M26.292 26.9329C23.316 27.1329 16.681 27.1329 13.708 26.9329C10.484 26.7119 10.108 25.1319 10.084 20.0009C10.108 14.8599 10.484 13.2909 13.708 13.0699C16.682 12.8699 23.316 12.8699 26.292 13.0699C29.518 13.2909 29.892 14.8699 29.917 19.9999C29.891 25.1409 29.517 26.7119 26.292 26.9329Z" fill="#FF0606"/>
<path d="M17.166 16.6816L24.132 19.9936L17.166 23.3186V16.6816Z" fill="white"/>
</g>
<defs>
<clipPath id="clip0_77_355">
<rect width="40" height="40" fill="white"/>
</clipPath>
</defs>
</svg>
