<svg width="40" height="40" viewBox="0 0 40 40" fill="none" xmlns="http://www.w3.org/2000/svg">
<g clip-path="url(#clip0_5976_2024)">
<mask id="mask0_5976_2024" style="mask-type:luminance" maskUnits="userSpaceOnUse" x="0" y="0" width="40" height="40">
<path d="M40 0H0V40H40V0Z" fill="white"/>
</mask>
<g mask="url(#mask0_5976_2024)">
<path d="M20 40C31.0457 40 40 31.0457 40 20C40 8.9543 31.0457 0 20 0C8.9543 0 0 8.9543 0 20C0 31.0457 8.9543 40 20 40Z" fill="white"/>
</g>
<path d="M12.2307 27.8653V18.7115H12.0385C11.7448 18.7115 11.4983 18.6119 11.299 18.4125C11.0997 18.2132 11 17.9667 11 17.673V15.327C11 15.0334 11.0997 14.7869 11.299 14.5875C11.4983 14.3882 11.7448 14.2885 12.0385 14.2885H16.1423C15.9436 14.1129 15.8061 13.9045 15.7298 13.6633C15.6536 13.4223 15.6155 13.1691 15.6155 12.9038C15.6155 12.2415 15.8473 11.6785 16.311 11.2148C16.7747 10.7511 17.3377 10.5193 18 10.5193C18.3833 10.5193 18.7353 10.6094 19.0558 10.7895C19.3763 10.9695 19.6525 11.2038 19.8845 11.4923C20.1167 11.2 20.393 10.9647 20.7135 10.7865C21.034 10.6084 21.3859 10.5193 21.7693 10.5193C22.4316 10.5193 22.9946 10.7511 23.4583 11.2148C23.9219 11.6785 24.1538 12.2415 24.1538 12.9038C24.1538 13.1641 24.1147 13.4151 24.0365 13.6568C23.9583 13.8985 23.8218 14.109 23.627 14.2885H27.9615C28.2552 14.2885 28.5017 14.3882 28.701 14.5875C28.9003 14.7869 29 15.0334 29 15.327V17.673C29 17.9667 28.9003 18.2132 28.701 18.4125C28.5017 18.6119 28.2552 18.7115 27.9615 18.7115H27.7693V27.8653C27.7693 28.3096 27.6111 28.69 27.2948 29.0063C26.9784 29.3226 26.5981 29.4808 26.1538 29.4808H13.8463C13.4019 29.4808 13.0216 29.3226 12.7053 29.0063C12.3889 28.69 12.2307 28.3096 12.2307 27.8653ZM21.7693 11.5193C21.3769 11.5193 21.0481 11.652 20.7828 11.9173C20.5173 12.1826 20.3845 12.5115 20.3845 12.9038C20.3845 13.2961 20.5173 13.625 20.7828 13.8903C21.0481 14.1558 21.3769 14.2885 21.7693 14.2885C22.1616 14.2885 22.4904 14.1558 22.7557 13.8903C23.0211 13.625 23.1538 13.2961 23.1538 12.9038C23.1538 12.5115 23.0211 12.1826 22.7557 11.9173C22.4904 11.652 22.1616 11.5193 21.7693 11.5193ZM16.6155 12.9038C16.6155 13.2961 16.7482 13.625 17.0135 13.8903C17.2788 14.1558 17.6077 14.2885 18 14.2885C18.3923 14.2885 18.7212 14.1558 18.9865 13.8903C19.2518 13.625 19.3845 13.2961 19.3845 12.9038C19.3845 12.5115 19.2518 12.1826 18.9865 11.9173C18.7212 11.652 18.3923 11.5193 18 11.5193C17.6077 11.5193 17.2788 11.652 17.0135 11.9173C16.7482 12.1826 16.6155 12.5115 16.6155 12.9038ZM12 15.2885V17.7115H19.5V15.2885H12ZM19.5 28.4808V18.7115H13.2307V27.8653C13.2307 28.0448 13.2884 28.1923 13.4037 28.3078C13.5192 28.4231 13.6668 28.4808 13.8463 28.4808H19.5ZM20.5 28.4808H26.1538C26.3333 28.4808 26.4807 28.4231 26.5962 28.3078C26.7116 28.1923 26.7693 28.0448 26.7693 27.8653V18.7115H20.5V28.4808ZM28 17.7115V15.2885H20.5V17.7115H28Z" fill="black"/>
<circle cx="17.9922" cy="12.9148" r="1.04883" fill="black"/>
<circle cx="21.7832" cy="12.9148" r="1.04883" fill="black"/>
</g>
<defs>
<clipPath id="clip0_5976_2024">
<rect width="40" height="40" fill="white"/>
</clipPath>
</defs>
</svg>
