<svg width="40" height="40" viewBox="0 0 40 40" fill="none" xmlns="http://www.w3.org/2000/svg">
<g clip-path="url(#clip0_5976_2054)">
<mask id="mask0_5976_2054" style="mask-type:luminance" maskUnits="userSpaceOnUse" x="0" y="0" width="40" height="40">
<path d="M40 0H0V40H40V0Z" fill="white"/>
</mask>
<g mask="url(#mask0_5976_2054)">
<path d="M20 40C31.0457 40 40 31.0457 40 20C40 8.9543 31.0457 0 20 0C8.9543 0 0 8.9543 0 20C0 31.0457 8.9543 40 20 40Z" fill="white"/>
</g>
<path d="M13.6155 29.1154C13.1552 29.1154 12.7708 28.9612 12.4625 28.6529C12.1542 28.3446 12 27.9602 12 27.4999V14.7309C12 14.2706 12.1542 13.8862 12.4625 13.5779C12.7708 13.2696 13.1552 13.1154 13.6155 13.1154H15.3845V11.4231C15.3845 11.268 15.4355 11.1394 15.5375 11.0374C15.6395 10.9356 15.768 10.8846 15.923 10.8846C16.0782 10.8846 16.2068 10.9356 16.3088 11.0374C16.4106 11.1394 16.4615 11.268 16.4615 11.4231V13.1154H23.6155V11.3846C23.6155 11.2423 23.6632 11.1234 23.7587 11.0279C23.8542 10.9324 23.9732 10.8846 24.1155 10.8846C24.2577 10.8846 24.3765 10.9324 24.472 11.0279C24.5677 11.1234 24.6155 11.2423 24.6155 11.3846V13.1154H26.3845C26.8448 13.1154 27.2292 13.2696 27.5375 13.5779C27.8458 13.8862 28 14.2706 28 14.7309V27.4999C28 27.9602 27.8458 28.3446 27.5375 28.6529C27.2292 28.9612 26.8448 29.1154 26.3845 29.1154H13.6155ZM13.6155 28.1154H26.3845C26.5385 28.1154 26.6796 28.0513 26.8078 27.9231C26.9359 27.795 27 27.6539 27 27.4999V18.7309H13V27.4999C13 27.6539 13.0641 27.795 13.1923 27.9231C13.3204 28.0513 13.4615 28.1154 13.6155 28.1154ZM20 22.2691C19.7937 22.2691 19.6138 22.1926 19.4605 22.0394C19.3073 21.8862 19.2308 21.7064 19.2308 21.4999C19.2308 21.2936 19.3073 21.1138 19.4605 20.9606C19.6138 20.8075 19.7937 20.7309 20 20.7309C20.2063 20.7309 20.3862 20.8075 20.5395 20.9606C20.6927 21.1138 20.7692 21.2936 20.7692 21.4999C20.7692 21.7064 20.6927 21.8862 20.5395 22.0394C20.3862 22.1926 20.2063 22.2691 20 22.2691ZM16 22.2691C15.7937 22.2691 15.6138 22.1926 15.4605 22.0394C15.3073 21.8862 15.2308 21.7064 15.2308 21.4999C15.2308 21.2936 15.3073 21.1138 15.4605 20.9606C15.6138 20.8075 15.7937 20.7309 16 20.7309C16.2063 20.7309 16.3862 20.8075 16.5395 20.9606C16.6927 21.1138 16.7692 21.2936 16.7692 21.4999C16.7692 21.7064 16.6927 21.8862 16.5395 22.0394C16.3862 22.1926 16.2063 22.2691 16 22.2691ZM24 22.2691C23.7937 22.2691 23.6138 22.1926 23.4605 22.0394C23.3073 21.8862 23.2307 21.7064 23.2307 21.4999C23.2307 21.2936 23.3073 21.1138 23.4605 20.9606C23.6138 20.8075 23.7937 20.7309 24 20.7309C24.2063 20.7309 24.3862 20.8075 24.5395 20.9606C24.6927 21.1138 24.7693 21.2936 24.7693 21.4999C24.7693 21.7064 24.6927 21.8862 24.5395 22.0394C24.3862 22.1926 24.2063 22.2691 24 22.2691ZM20 26.1154C19.7937 26.1154 19.6138 26.0388 19.4605 25.8856C19.3073 25.7325 19.2308 25.5526 19.2308 25.3461C19.2308 25.1398 19.3073 24.96 19.4605 24.8066C19.6138 24.6535 19.7937 24.5769 20 24.5769C20.2063 24.5769 20.3862 24.6535 20.5395 24.8066C20.6927 24.96 20.7692 25.1398 20.7692 25.3461C20.7692 25.5526 20.6927 25.7325 20.5395 25.8856C20.3862 26.0388 20.2063 26.1154 20 26.1154ZM16 26.1154C15.7937 26.1154 15.6138 26.0388 15.4605 25.8856C15.3073 25.7325 15.2308 25.5526 15.2308 25.3461C15.2308 25.1398 15.3073 24.96 15.4605 24.8066C15.6138 24.6535 15.7937 24.5769 16 24.5769C16.2063 24.5769 16.3862 24.6535 16.5395 24.8066C16.6927 24.96 16.7692 25.1398 16.7692 25.3461C16.7692 25.5526 16.6927 25.7325 16.5395 25.8856C16.3862 26.0388 16.2063 26.1154 16 26.1154ZM24 26.1154C23.7937 26.1154 23.6138 26.0388 23.4605 25.8856C23.3073 25.7325 23.2307 25.5526 23.2307 25.3461C23.2307 25.1398 23.3073 24.96 23.4605 24.8066C23.6138 24.6535 23.7937 24.5769 24 24.5769C24.2063 24.5769 24.3862 24.6535 24.5395 24.8066C24.6927 24.96 24.7693 25.1398 24.7693 25.3461C24.7693 25.5526 24.6927 25.7325 24.5395 25.8856C24.3862 26.0388 24.2063 26.1154 24 26.1154Z" fill="black"/>
</g>
<defs>
<clipPath id="clip0_5976_2054">
<rect width="40" height="40" fill="white"/>
</clipPath>
</defs>
</svg>
