<?xml version="1.0" encoding="UTF-8"?>
<svg id="_레이어_2" data-name="레이어 2" xmlns="http://www.w3.org/2000/svg" viewBox="0 0 62.36 41.57">
  <defs>
    <style>
      .cls-1 {
        fill: #f4f4f5;
      }

      .cls-2 {
        fill: #f90805;
      }

      .cls-3 {
        fill: #0437a0;
      }
    </style>
  </defs>
  <g id="Layer_3" data-name="Layer 3">
    <g>
      <path class="cls-1" d="M62.36,3.2v3.2h-30.76v-3.2h30.76ZM62.36,9.59v3.2h-30.76v-3.2h30.76ZM62.36,15.99v3.2h-30.76v-3.2h30.76ZM62.36,22.39v3.2H0v-3.2h62.36ZM62.36,28.78v3.2H0v-3.2h62.36ZM62.36,35.18v3.2H0v-3.2h62.36Z"/>
      <path class="cls-2" d="M0,0h62.36v3.2H0V0h0ZM0,38.38h62.36v3.2H0v-3.2h0ZM0,31.98h62.36v3.2H0v-3.2h0ZM0,25.58h62.36v3.2H0v-3.2h0ZM0,19.19h62.36v3.2H0v-3.2h0ZM0,12.79h62.36v3.2H0v-3.2h0ZM0,6.4h62.36v3.2H0v-3.2h0Z"/>
      <polygon class="cls-3" points="0 0 31.6 0 31.6 22.39 0 22.39 0 0 0 0"/>
      <path class="cls-1" d="M28.96,1.11l.29.89h.93s-.75.54-.75.54l.29.88-.75-.55-.75.55.29-.88-.76-.55h.93s.29-.89.29-.89h0ZM2.63,10.03l.29.89h.93s-.75.54-.75.54l.29.89-.75-.55-.75.55.29-.89-.75-.55h.93s.29-.89.29-.89h0ZM5.27,12.27l.29.89h.93s-.75.54-.75.54l.29.88-.75-.55-.75.55.29-.88-.75-.55h.93s.29-.89.29-.89h0ZM26.33,12.27l.29.89h.93s-.75.54-.75.54l.29.88-.75-.55-.75.55.29-.88-.75-.55h.93s.29-.89.29-.89h0ZM21.07,12.27l.29.89h.93s-.75.54-.75.54l.29.88-.75-.55-.75.55.29-.88-.75-.55h.93s.29-.89.29-.89h0ZM15.8,12.27l.29.89h.93s-.75.54-.75.54l.29.88-.75-.55-.75.55.29-.88-.76-.55h.93s.29-.89.29-.89h0ZM10.53,12.27l.29.89h.93s-.75.54-.75.54l.29.88-.75-.55-.75.55.29-.88-.75-.55h.93s.29-.89.29-.89h0ZM7.9,10.03l.29.89h.93s-.75.54-.75.54l.29.89-.75-.55-.75.55.29-.89-.76-.55h.93s.29-.89.29-.89h0ZM23.7,10.03l.29.89h.93s-.75.54-.75.54l.29.89-.75-.55-.75.55.29-.89-.76-.55h.93s.29-.89.29-.89h0ZM28.96,10.03l.29.89h.93s-.75.54-.75.54l.29.89-.75-.55-.75.55.29-.89-.76-.55h.93s.29-.89.29-.89h0ZM28.96,14.5l.29.88h.93s-.75.54-.75.54l.29.89-.75-.55-.75.55.29-.89-.76-.55h.93s.29-.88.29-.88h0ZM23.7,14.5l.29.88h.93s-.75.54-.75.54l.29.89-.75-.55-.75.55.29-.89-.76-.55h.93s.29-.88.29-.88h0ZM7.9,14.5l.29.88h.93s-.75.54-.75.54l.29.89-.75-.55-.75.55.29-.89-.76-.55h.93s.29-.88.29-.88h0ZM5.27,16.73l.29.89h.93s-.75.54-.75.54l.29.89-.75-.55-.75.55.29-.89-.75-.55h.93s.29-.88.29-.88h0ZM26.33,16.73l.29.89h.93s-.75.54-.75.54l.29.89-.75-.55-.75.55.29-.89-.75-.55h.93s.29-.88.29-.88h0ZM21.07,16.73l.29.89h.93s-.75.54-.75.54l.29.89-.75-.55-.75.55.29-.89-.75-.55h.93s.29-.88.29-.88h0ZM15.8,16.73l.29.89h.93s-.75.54-.75.54l.29.89-.75-.55-.75.55.29-.89-.76-.55h.93s.29-.88.29-.88h0ZM10.53,16.73l.29.89h.93s-.75.54-.75.54l.29.89-.75-.55-.75.55.29-.89-.75-.55h.93s.29-.88.29-.88h0ZM2.63,14.5l.29.88h.93s-.75.54-.75.54l.29.89-.75-.55-.75.55.29-.89-.75-.55h.93s.29-.88.29-.88h0ZM2.63,18.96l.29.89h.93s-.75.54-.75.54l.29.89-.75-.55-.75.55.29-.89-.75-.55h.93s.29-.88.29-.88h0ZM7.9,18.96l.29.89h.93s-.75.54-.75.54l.29.89-.75-.55-.75.55.29-.89-.76-.55h.93s.29-.88.29-.88h0ZM23.7,18.96l.29.89h.93s-.75.54-.75.54l.29.89-.75-.55-.75.55.29-.89-.76-.55h.93s.29-.88.29-.88h0ZM28.96,18.96l.29.89h.93s-.75.54-.75.54l.29.89-.75-.55-.75.55.29-.89-.76-.55h.93s.29-.88.29-.88h0ZM5.27,7.8l.29.89h.93s-.75.54-.75.54l.29.89-.75-.55-.75.55.29-.89-.75-.55h.93s.29-.89.29-.89h0ZM5.27,3.34l.29.89h.93s-.75.55-.75.55l.29.88-.75-.55-.75.55.29-.88-.75-.55h.93s.29-.88.29-.88h0ZM26.33,3.34l.29.89h.93s-.75.55-.75.55l.29.88-.75-.55-.75.55.29-.88-.75-.55h.93s.29-.88.29-.88h0ZM21.07,3.34l.29.89h.93s-.75.55-.75.55l.29.88-.75-.55-.75.55.29-.88-.75-.55h.93s.29-.88.29-.88h0ZM15.8,3.34l.29.89h.93s-.75.55-.75.55l.29.88-.75-.55-.75.55.29-.88-.76-.55h.93s.29-.88.29-.88h0ZM10.53,3.34l.29.89h.93s-.75.55-.75.55l.29.88-.75-.55-.75.55.29-.88-.75-.55h.93s.29-.88.29-.88h0ZM2.63,5.57l.29.89h.93s-.75.54-.75.54l.29.89-.75-.55-.75.55.29-.89-.75-.55h.93s.29-.89.29-.89h0ZM26.33,7.8l.29.89h.93s-.75.54-.75.54l.29.89-.75-.55-.75.55.29-.89-.75-.55h.93s.29-.89.29-.89h0ZM21.07,7.8l.29.89h.93s-.75.54-.75.54l.29.89-.75-.55-.75.55.29-.89-.75-.55h.93s.29-.89.29-.89h0ZM15.8,7.8l.29.89h.93s-.75.54-.75.54l.29.89-.75-.55-.75.55.29-.89-.76-.55h.93s.29-.89.29-.89h0ZM10.53,7.8l.29.89h.93s-.75.54-.75.54l.29.89-.75-.55-.75.55.29-.89-.75-.55h.93s.29-.89.29-.89h0ZM7.9,5.57l.29.89h.93s-.75.54-.75.54l.29.89-.75-.55-.75.55.29-.89-.76-.55h.93s.29-.89.29-.89h0ZM7.9,1.11l.29.89h.93s-.75.54-.75.54l.29.88-.75-.55-.75.55.29-.88-.76-.55h.93s.29-.89.29-.89h0ZM2.63,1.11l.29.89h.93s-.75.54-.75.54l.29.88-.75-.55-.75.55.29-.88-.75-.55h.93s.29-.89.29-.89h0ZM13.17,18.96l.29.89h.93s-.75.54-.75.54l.29.89-.75-.55-.75.55.29-.89-.75-.55h.93s.29-.88.29-.88h0ZM13.17,14.5l.29.88h.93s-.75.54-.75.54l.29.89-.75-.55-.75.55.29-.89-.75-.55h.93s.29-.88.29-.88h0ZM13.17,10.03l.29.89h.93s-.75.54-.75.54l.29.89-.75-.55-.75.55.29-.89-.75-.55h.93s.29-.89.29-.89h0ZM13.17,5.57l.29.89h.93s-.75.54-.75.54l.29.89-.75-.55-.75.55.29-.89-.75-.55h.93s.29-.89.29-.89h0ZM13.17,1.11l.29.89h.93s-.75.54-.75.54l.29.88-.75-.55-.75.55.29-.88-.75-.55h.93s.29-.89.29-.89h0ZM18.43,18.96l.29.89h.93s-.76.54-.76.54l.29.89-.75-.55-.75.55.29-.89-.75-.55h.93s.28-.88.28-.88h0ZM18.43,14.5l.29.88h.93s-.76.54-.76.54l.29.89-.75-.55-.75.55.29-.89-.75-.55h.93s.28-.88.28-.88h0ZM18.43,10.03l.29.89h.93s-.76.54-.76.54l.29.89-.75-.55-.75.55.29-.89-.75-.55h.93s.28-.89.28-.89h0ZM18.43,5.57l.29.89h.93s-.76.54-.76.54l.29.89-.75-.55-.75.55.29-.89-.75-.55h.93s.28-.89.28-.89h0ZM18.43,1.11l.29.89h.93s-.76.54-.76.54l.29.88-.75-.55-.75.55.29-.88-.75-.55h.93s.28-.89.28-.89h0ZM23.7,5.57l.29.89h.93s-.75.54-.75.54l.29.89-.75-.55-.75.55.29-.89-.76-.55h.93s.29-.89.29-.89h0ZM23.7,1.11l.29.89h.93s-.75.54-.75.54l.29.88-.75-.55-.75.55.29-.88-.76-.55h.93s.29-.89.29-.89h0ZM28.96,5.57l.29.89h.93s-.75.54-.75.54l.29.89-.75-.55-.75.55.29-.89-.76-.55h.93s.29-.89.29-.89h0Z"/>
    </g>
  </g>
</svg>