<?xml version="1.0" encoding="UTF-8"?>
<svg id="_레이어_2" data-name="레이어 2" xmlns="http://www.w3.org/2000/svg" xmlns:xlink="http://www.w3.org/1999/xlink" viewBox="0 0 56.69 56.69">
  <defs>
    <style>
      .cls-1 {
        fill: none;
      }

      .cls-2 {
        fill: #f4f4f5;
      }

      .cls-3 {
        fill: #f90805;
      }

      .cls-4 {
        clip-path: url(#clippath);
      }

      .cls-5 {
        fill: #0437a0;
      }
    </style>
    <clipPath id="clippath">
      <path class="cls-1" d="M56.69,28.34c0,15.65-12.69,28.34-28.34,28.34S0,44,0,28.34,12.69,0,28.35,0s28.34,12.69,28.34,28.34Z"/>
    </clipPath>
  </defs>
  <g id="Layer_3" data-name="Layer 3">
    <g class="cls-4">
      <g>
        <path class="cls-2" d="M70.86,4.36v4.36H28.91v-4.36h41.95ZM70.86,13.08v4.36H28.91v-4.36h41.95ZM70.86,21.8v4.36H28.91v-4.36h41.95ZM70.86,30.52v4.36H-14.17v-4.36h85.03ZM70.86,39.25v4.36H-14.17v-4.36h85.03ZM70.86,47.97v4.36H-14.17v-4.36h85.03Z"/>
        <path class="cls-3" d="M-14.17,0h85.03v4.36H-14.17V0h0ZM-14.17,52.33h85.03v4.36H-14.17v-4.36h0ZM-14.17,43.61h85.03v4.36H-14.17v-4.36h0ZM-14.17,34.88h85.03v4.36H-14.17v-4.36h0ZM-14.17,26.16h85.03v4.36H-14.17v-4.36h0ZM-14.17,17.44h85.03v4.36H-14.17v-4.36h0ZM-14.17,8.72h85.03v4.36H-14.17v-4.36h0Z"/>
        <polygon class="cls-5" points="-14.17 0 28.91 0 28.91 30.52 -14.17 30.52 -14.17 0 -14.17 0"/>
        <path class="cls-2" d="M25.32,1.51l.39,1.21h1.27s-1.03.74-1.03.74l.39,1.21-1.03-.75-1.03.75.4-1.21-1.03-.74h1.27s.39-1.21.39-1.21h0ZM-10.58,13.68l.39,1.21h1.27s-1.03.74-1.03.74l.39,1.21-1.03-.75-1.03.75.4-1.21-1.03-.74h1.27s.39-1.21.39-1.21h0ZM-6.99,16.73l.39,1.21h1.27s-1.03.74-1.03.74l.39,1.21-1.02-.75-1.03.75.39-1.21-1.03-.74h1.27s.39-1.21.39-1.21h0ZM21.73,16.73l.39,1.21h1.27s-1.03.74-1.03.74l.39,1.21-1.03-.75-1.03.75.39-1.21-1.03-.74h1.27s.39-1.21.39-1.21h0ZM14.55,16.73l.39,1.21h1.27s-1.03.74-1.03.74l.39,1.21-1.03-.75-1.03.75.4-1.21-1.03-.74h1.27s.39-1.21.39-1.21h0ZM7.37,16.73l.39,1.21h1.27s-1.03.74-1.03.74l.39,1.21-1.03-.75-1.03.75.4-1.21-1.03-.74h1.27s.39-1.21.39-1.21h0ZM.19,16.73l.39,1.21h1.27s-1.03.74-1.03.74l.39,1.21-1.03-.75-1.03.75.39-1.21-1.03-.74H-.2s.39-1.21.39-1.21H.19ZM-3.4,13.68l.39,1.21h1.27s-1.03.74-1.03.74l.39,1.21-1.02-.75-1.03.75.4-1.21-1.03-.74h1.27s.39-1.21.39-1.21h0ZM18.14,13.68l.39,1.21h1.27s-1.03.74-1.03.74l.39,1.21-1.02-.75-1.03.75.4-1.21-1.03-.74h1.27s.39-1.21.39-1.21h0ZM25.32,13.68l.39,1.21h1.27s-1.03.74-1.03.74l.39,1.21-1.03-.75-1.03.75.4-1.21-1.03-.74h1.27s.39-1.21.39-1.21h0ZM25.32,19.77l.39,1.21h1.27s-1.03.74-1.03.74l.39,1.21-1.03-.75-1.03.75.4-1.21-1.03-.74h1.27s.39-1.2.39-1.2h0ZM18.14,19.77l.39,1.21h1.27s-1.03.74-1.03.74l.39,1.21-1.02-.75-1.03.75.4-1.21-1.03-.74h1.27s.39-1.2.39-1.2h0ZM-3.4,19.77l.39,1.21h1.27s-1.03.74-1.03.74l.39,1.21-1.02-.75-1.03.75.4-1.21-1.03-.74h1.27s.39-1.2.39-1.2h0ZM-6.99,22.81l.39,1.21h1.27s-1.03.74-1.03.74l.39,1.21-1.02-.75-1.03.75.39-1.21-1.03-.74h1.27s.39-1.21.39-1.21h0ZM21.73,22.81l.39,1.21h1.27s-1.03.74-1.03.74l.39,1.21-1.03-.75-1.03.75.39-1.21-1.03-.74h1.27s.39-1.21.39-1.21h0ZM14.55,22.81l.39,1.21h1.27s-1.03.74-1.03.74l.39,1.21-1.03-.75-1.03.75.4-1.21-1.03-.74h1.27s.39-1.21.39-1.21h0ZM7.37,22.81l.39,1.21h1.27s-1.03.74-1.03.74l.39,1.21-1.03-.75-1.03.75.4-1.21-1.03-.74h1.27s.39-1.21.39-1.21h0ZM.19,22.81l.39,1.21h1.27s-1.03.74-1.03.74l.39,1.21-1.03-.75-1.03.75.39-1.21-1.03-.74H-.2s.39-1.21.39-1.21H.19ZM-10.58,19.77l.39,1.21h1.27s-1.03.74-1.03.74l.39,1.21-1.03-.75-1.03.75.4-1.21-1.03-.74h1.27s.39-1.2.39-1.2h0ZM-10.58,25.85l.39,1.21h1.27s-1.03.74-1.03.74l.39,1.21-1.03-.75-1.03.75.4-1.21-1.03-.75h1.27s.39-1.21.39-1.21h0ZM-3.4,25.85l.39,1.21h1.27s-1.03.74-1.03.74l.39,1.21-1.02-.75-1.03.75.4-1.21-1.03-.75h1.27s.39-1.21.39-1.21h0ZM18.14,25.85l.39,1.21h1.27s-1.03.74-1.03.74l.39,1.21-1.02-.75-1.03.75.4-1.21-1.03-.75h1.27s.39-1.21.39-1.21h0ZM25.32,25.85l.39,1.21h1.27s-1.03.74-1.03.74l.39,1.21-1.03-.75-1.03.75.4-1.21-1.03-.75h1.27s.39-1.21.39-1.21h0ZM-6.99,10.64l.39,1.21h1.27s-1.03.74-1.03.74l.39,1.21-1.02-.75-1.03.75.39-1.21-1.03-.74h1.27s.39-1.21.39-1.21h0ZM-6.99,4.55l.39,1.21h1.27s-1.03.74-1.03.74l.39,1.2-1.02-.75-1.03.75.39-1.2-1.03-.75h1.27s.39-1.2.39-1.2h0ZM21.73,4.55l.39,1.21h1.27s-1.03.74-1.03.74l.39,1.2-1.03-.75-1.03.75.39-1.2-1.03-.75h1.27s.39-1.2.39-1.2h0ZM14.55,4.55l.39,1.21h1.27s-1.03.74-1.03.74l.39,1.2-1.03-.75-1.03.75.4-1.2-1.03-.75h1.27s.39-1.2.39-1.2h0ZM7.37,4.55l.39,1.21h1.27s-1.03.74-1.03.74l.39,1.2-1.03-.75-1.03.75.4-1.2-1.03-.75h1.27s.39-1.2.39-1.2h0ZM.19,4.55l.39,1.21h1.27s-1.03.74-1.03.74l.39,1.2-1.03-.75-1.03.75.39-1.2-1.03-.75H-.2s.39-1.2.39-1.2H.19ZM-10.58,7.6l.39,1.21h1.27s-1.03.74-1.03.74l.39,1.21-1.03-.75-1.03.75.4-1.21-1.03-.74h1.27s.39-1.21.39-1.21h0ZM21.73,10.64l.39,1.21h1.27s-1.03.74-1.03.74l.39,1.21-1.03-.75-1.03.75.39-1.21-1.03-.74h1.27s.39-1.21.39-1.21h0ZM14.55,10.64l.39,1.21h1.27s-1.03.74-1.03.74l.39,1.21-1.03-.75-1.03.75.4-1.21-1.03-.74h1.27s.39-1.21.39-1.21h0ZM7.37,10.64l.39,1.21h1.27s-1.03.74-1.03.74l.39,1.21-1.03-.75-1.03.75.4-1.21-1.03-.74h1.27s.39-1.21.39-1.21h0ZM.19,10.64l.39,1.21h1.27s-1.03.74-1.03.74l.39,1.21-1.03-.75-1.03.75.39-1.21-1.03-.74H-.2s.39-1.21.39-1.21H.19ZM-3.4,7.6l.39,1.21h1.27s-1.03.74-1.03.74l.39,1.21-1.02-.75-1.03.75.4-1.21-1.03-.74h1.27s.39-1.21.39-1.21h0ZM-3.4,1.51l.39,1.21h1.27s-1.03.74-1.03.74l.39,1.21-1.02-.75-1.03.75.4-1.21-1.03-.74h1.27s.39-1.21.39-1.21h0ZM-10.58,1.51l.39,1.21h1.27s-1.03.74-1.03.74l.39,1.21-1.03-.75-1.03.75.4-1.21-1.03-.74h1.27s.39-1.21.39-1.21h0ZM3.78,25.85l.39,1.21h1.27s-1.03.74-1.03.74l.39,1.21-1.03-.75-1.03.75.39-1.21-1.03-.75h1.27s.39-1.21.39-1.21h0ZM3.78,19.77l.39,1.21h1.27s-1.03.74-1.03.74l.39,1.21-1.03-.75-1.03.75.39-1.21-1.03-.74h1.27s.39-1.2.39-1.2h0ZM3.78,13.68l.39,1.21h1.27s-1.03.74-1.03.74l.39,1.21-1.03-.75-1.03.75.39-1.21-1.03-.74h1.27s.39-1.21.39-1.21h0ZM3.78,7.6l.39,1.21h1.27s-1.03.74-1.03.74l.39,1.21-1.03-.75-1.03.75.39-1.21-1.03-.74h1.27s.39-1.21.39-1.21h0ZM3.78,1.51l.39,1.21h1.27s-1.03.74-1.03.74l.39,1.21-1.03-.75-1.03.75.39-1.21-1.03-.74h1.27s.39-1.21.39-1.21h0ZM10.96,25.85l.39,1.21h1.27s-1.03.74-1.03.74l.4,1.21-1.03-.75-1.02.75.39-1.21-1.03-.75h1.27s.39-1.21.39-1.21h0ZM10.96,19.77l.39,1.21h1.27s-1.03.74-1.03.74l.4,1.21-1.03-.75-1.02.75.39-1.21-1.03-.74h1.27s.39-1.2.39-1.2h0ZM10.96,13.68l.39,1.21h1.27s-1.03.74-1.03.74l.4,1.21-1.03-.75-1.02.75.39-1.21-1.03-.74h1.27s.39-1.21.39-1.21h0ZM10.96,7.6l.39,1.21h1.27s-1.03.74-1.03.74l.4,1.21-1.03-.75-1.02.75.39-1.21-1.03-.74h1.27s.39-1.21.39-1.21h0ZM10.96,1.51l.39,1.21h1.27s-1.03.74-1.03.74l.4,1.21-1.03-.75-1.02.75.39-1.21-1.03-.74h1.27s.39-1.21.39-1.21h0ZM18.14,7.6l.39,1.21h1.27s-1.03.74-1.03.74l.39,1.21-1.02-.75-1.03.75.4-1.21-1.03-.74h1.27s.39-1.21.39-1.21h0ZM18.14,1.51l.39,1.21h1.27s-1.03.74-1.03.74l.39,1.21-1.02-.75-1.03.75.4-1.21-1.03-.74h1.27s.39-1.21.39-1.21h0ZM25.32,7.6l.39,1.21h1.27s-1.03.74-1.03.74l.39,1.21-1.03-.75-1.03.75.4-1.21-1.03-.74h1.27s.39-1.21.39-1.21h0Z"/>
      </g>
    </g>
  </g>
</svg>