<?xml version="1.0" encoding="UTF-8"?>
<svg id="_레이어_2" data-name="레이어 2" xmlns="http://www.w3.org/2000/svg" viewBox="0 0 62.36 41.57">
  <defs>
    <style>
      .cls-1 {
        fill: #f90805;
      }

      .cls-2 {
        fill: #fedc36;
      }
    </style>
  </defs>
  <g id="Layer_3" data-name="Layer 3">
    <g>
      <polygon class="cls-1" points="0 41.57 62.36 41.57 62.36 0 0 0 0 41.57 0 41.57"/>
      <path class="cls-2" d="M21.51,2.16l-.92,1.25-1.47-.5.9,1.26-.93,1.24,1.48-.46.89,1.27v-1.55s1.5-.46,1.5-.46l-1.47-.49.02-1.55h0ZM26.61,7.04l-1.47.5-.93-1.24.03,1.55-1.47.5,1.48.45.02,1.55.89-1.27,1.48.46-.93-1.24.9-1.26h0ZM26.98,13.93l-1.55-.02-.45-1.48-.5,1.47-1.55-.03,1.24.93-.51,1.46,1.27-.89,1.24.94-.45-1.48,1.27-.89h0ZM22.9,18.71l-1.48-.46-.02-1.55-.89,1.27-1.48-.46.93,1.24-.9,1.26,1.47-.5.93,1.24-.03-1.55,1.47-.5h0ZM10.39,4.16l-1.42,4.39h-4.61s3.74,2.7,3.74,2.7l-1.43,4.38,3.73-2.72,3.73,2.72-1.43-4.38,3.74-2.7h-4.61s-1.42-4.38-1.42-4.38h0Z"/>
    </g>
  </g>
</svg>