<?xml version="1.0" encoding="UTF-8"?>
<svg id="_레이어_2" data-name="레이어 2" xmlns="http://www.w3.org/2000/svg" viewBox="0 0 62.42 41.63">
  <defs>
    <style>
      .cls-1 {
        fill: #f1f0f0;
        stroke: #f3f3f4;
        stroke-miterlimit: 2.41;
        stroke-width: .06px;
      }

      .cls-2 {
        fill: #f90805;
      }

      .cls-3 {
        fill: #0437a0;
      }
    </style>
  </defs>
  <g id="Layer_3" data-name="Layer 3">
    <g>
      <polygon class="cls-1" points=".03 .03 62.39 .03 62.39 41.6 .03 41.6 .03 .03 .03 .03"/>
      <g>
        <path class="cls-3" d="M39.29,24.4c-1.38,3.12-4.5,5.3-8.13,5.3-4.9,0-8.88-3.97-8.88-8.88,0-1.47.36-2.85.99-4.07-.85,4.39,2.56,7.03,5.72,5.77,1.75-.7,2.08-1.87,3.39-2.83,3.23-2.39,7.48.29,6.93,4.68,0,.01,0,.02-.02.04h0Z"/>
        <path class="cls-2" d="M31.16,11.95c4.9,0,8.88,3.98,8.88,8.88,0,1.26-.26,2.46-.74,3.54.55-4.39-3.7-7.06-6.93-4.68-1.3.96-1.64,2.13-3.39,2.83-3.15,1.26-6.56-1.38-5.72-5.77,1.48-2.86,4.46-4.81,7.89-4.81h0Z"/>
        <path d="M14.59,15.06l4.94-7.4,1.22.82-4.93,7.4-1.23-.82h0ZM16.4,16.3l4.94-7.4,1.22.82-4.94,7.4-1.23-.82h0ZM12.7,13.86l4.94-7.4,1.23.82-4.94,7.4-1.23-.82h0Z"/>
        <path d="M46.61,15.88l-4.93-7.4,1.22-.82,4.94,7.4-1.23.82h0ZM48.5,14.68l-2.3-3.45,1.23-.82,2.3,3.45-1.23.82h0ZM45.81,10.64l-2.24-3.36,1.23-.82,2.24,3.37-1.23.82h0ZM44.8,17.12l-2.29-3.43,1.23-.82,2.29,3.43-1.22.82h0ZM42.12,13.1l-2.26-3.38,1.23-.82,2.26,3.38-1.23.82h0Z"/>
        <path d="M46.02,25.33l-2.29,3.43-1.23-.82,2.29-3.43,1.22.82h0ZM43.34,29.35l-2.26,3.38-1.23-.82,2.26-3.38,1.23.82h0ZM49.72,27.78l-2.3,3.44-1.23-.82,2.3-3.45,1.23.82h0ZM47.03,31.81l-2.24,3.37-1.23-.82,2.24-3.36,1.23.82h0ZM47.83,26.57l-2.27,3.4-1.23-.82,2.27-3.41,1.23.82h0ZM45.17,30.57l-2.27,3.41-1.22-.82,2.27-3.4,1.23.82h0Z"/>
        <path d="M15.84,25.75l2.27,3.41-1.23.82-2.27-3.4,1.22-.82h0ZM17.65,24.51l4.94,7.4-1.23.82-4.93-7.4,1.23-.82h0ZM13.95,26.96l4.93,7.4-1.23.82-4.94-7.4,1.23-.82h0ZM18.51,29.75l2.27,3.4-1.23.82-2.27-3.41,1.23-.82h0Z"/>
      </g>
    </g>
  </g>
</svg>