<svg width="2617" height="288" viewBox="0 0 2617 288" fill="none" xmlns="http://www.w3.org/2000/svg">
<path d="M0 3.85999H104.69C125.55 3.85999 143.42 7.78999 158.29 15.64C173.16 23.5 184.4 34.41 192 48.38C199.6 62.35 203.4 78.42 203.4 96.57C203.4 114.72 199.54 130.54 191.81 144.38C184.08 158.22 172.78 169.1 157.91 177.02C143.04 184.94 125.04 188.9 103.92 188.9H34.38V147.37H97.16C109.52 147.37 119.79 145.22 127.97 140.9C136.15 136.59 142.2 130.63 146.13 123.03C150.06 115.43 152.02 106.61 152.02 96.57C152.02 86.53 150.06 77.35 146.13 69.82C142.2 62.29 136.12 56.43 127.88 52.24C119.64 48.06 109.34 45.96 96.97 45.96H50.23V283.55H0V3.85999Z" fill="black"/>
<path d="M244.15 3.85999H348.84C369.7 3.85999 387.57 7.78999 402.44 15.64C417.31 23.5 428.55 34.41 436.15 48.38C443.75 62.35 447.55 78.42 447.55 96.57C447.55 114.72 443.69 130.54 435.96 144.38C428.23 158.22 416.93 169.1 402.06 177.02C387.19 184.94 369.19 188.9 348.07 188.9H278.53V147.37H341.31C353.67 147.37 363.94 145.22 372.12 140.9C380.3 136.59 386.35 130.63 390.28 123.03C394.21 115.43 396.17 106.61 396.17 96.57C396.17 86.53 394.21 77.35 390.28 69.82C386.35 62.29 380.27 56.43 372.03 52.24C363.79 48.06 353.49 45.96 341.12 45.96H294.38V283.55H244.16V3.85999H244.15Z" fill="black"/>
<path d="M439.05 283.56L537.56 3.85999H599.56L698.07 283.56H644.37L569.62 61.04H567.3L492.55 283.56H439.05ZM642.06 173.84V214.21H494.68V173.84H642.06Z" fill="black"/>
<path d="M961.55 283.56H916.93L784.62 92.52H782.11V283.56H731.89V3.85999H777.09L909.02 195.09H911.53V3.85999H961.56V283.56H961.55Z" fill="black"/>
<path d="M1187.35 67.32C1181.17 60.17 1173.7 54.7 1164.94 50.9C1156.18 47.1 1146.2 45.2 1135 45.2C1119.8 45.2 1106.35 49.03 1094.63 56.69C1082.91 64.35 1073.7 75.56 1067.01 90.3C1060.31 105.05 1056.97 122.78 1056.97 143.51C1056.97 164.24 1060.25 182.21 1066.82 197.02C1073.39 211.83 1082.63 223.07 1094.54 230.73C1106.45 238.39 1120.33 242.22 1136.17 242.22C1150.33 242.22 1162.66 239.49 1173.16 234.01C1183.65 228.54 1191.73 220.68 1197.4 210.44C1203.06 200.2 1205.9 188.39 1205.9 175L1217.3 176.74H1141.2V137.14H1254.58V170.75C1254.58 194.19 1249.52 214.73 1239.42 232.37C1229.31 250.01 1215.31 263.6 1197.41 273.13C1179.51 282.66 1159.03 287.42 1135.99 287.42C1110.36 287.42 1087.8 281.59 1068.29 269.94C1048.78 258.29 1033.62 241.64 1022.8 220.01C1011.98 198.38 1006.57 173.01 1006.57 143.91C1006.57 114.81 1012.11 88.86 1023.18 67.23C1034.25 45.6 1049.45 28.98 1068.77 17.4C1088.09 5.82 1109.89 0 1134.23 0C1154.71 0 1173.38 3.93 1190.25 11.78C1207.12 19.64 1220.99 30.58 1231.88 44.62C1242.76 58.66 1249.62 74.82 1252.45 93.1H1201.07C1198.11 83.06 1193.54 74.46 1187.36 67.31L1187.35 67.32Z" fill="black"/>
<path d="M1570.68 69.73C1564.43 61.75 1556.58 55.66 1547.11 51.48C1537.65 47.3 1527.24 45.2 1515.91 45.2C1500.58 45.2 1487.03 49.03 1475.25 56.69C1463.47 64.35 1454.26 75.59 1447.63 90.4C1441 105.21 1437.68 122.98 1437.68 143.71C1437.68 164.44 1440.99 182.57 1447.63 197.31C1454.26 212.06 1463.47 223.23 1475.25 230.82C1487.03 238.42 1500.52 242.22 1515.72 242.22C1526.92 242.22 1537.16 240.19 1546.43 236.14C1555.7 232.08 1563.52 226.19 1569.9 218.47C1576.28 210.74 1580.55 201.54 1582.75 190.85L1633.55 191.04C1630.97 208.94 1624.47 225.23 1614.04 239.91C1603.61 254.59 1589.89 266.18 1572.9 274.68C1555.91 283.18 1536.65 287.43 1515.15 287.43C1490.55 287.43 1468.57 281.67 1449.19 270.14C1429.81 258.62 1414.65 242.01 1403.7 220.31C1392.75 198.61 1387.28 173.08 1387.28 143.72C1387.28 114.36 1392.82 88.48 1403.89 66.84C1414.96 45.21 1430.13 28.66 1449.38 17.2C1468.63 5.74001 1490.55 0.0100098 1515.15 0.0100098C1535.75 0.0100098 1554.52 3.91001 1571.46 11.7C1588.39 19.49 1602.24 30.76 1612.99 45.5C1623.74 60.25 1630.6 77.79 1633.56 98.14H1582.76C1580.96 87.2 1576.93 77.73 1570.69 69.75L1570.68 69.73Z" fill="black"/>
<path d="M1676.82 3.85999H1727.04V241.25H1850.66V283.55H1676.82V3.85999Z" fill="black"/>
<path d="M1941.25 283.56H1891.03V3.85999H1941.25V283.56Z" fill="black"/>
<path d="M2223.07 283.56H2178.45L2046.14 92.52H2043.63V283.56H1993.41V3.85999H2038.61L2170.54 195.09H2173.05V3.85999H2223.08V283.56H2223.07Z" fill="black"/>
<path d="M2325.45 283.56H2275.23V3.85999H2325.45V283.56Z" fill="black"/>
<path d="M2553.86 69.73C2547.61 61.75 2539.76 55.66 2530.29 51.48C2520.83 47.3 2510.42 45.2 2499.09 45.2C2483.76 45.2 2470.21 49.03 2458.43 56.69C2446.65 64.35 2437.44 75.59 2430.81 90.4C2424.18 105.21 2420.86 122.98 2420.86 143.71C2420.86 164.44 2424.17 182.57 2430.81 197.31C2437.44 212.06 2446.65 223.23 2458.43 230.82C2470.21 238.42 2483.7 242.22 2498.9 242.22C2510.1 242.22 2520.34 240.19 2529.61 236.14C2538.88 232.08 2546.7 226.19 2553.08 218.47C2559.46 210.74 2563.73 201.54 2565.93 190.85L2616.73 191.04C2614.15 208.94 2607.65 225.23 2597.22 239.91C2586.79 254.59 2573.07 266.18 2556.08 274.68C2539.09 283.18 2519.83 287.43 2498.33 287.43C2473.73 287.43 2451.75 281.67 2432.37 270.14C2412.99 258.62 2397.83 242.01 2386.88 220.31C2375.93 198.61 2370.46 173.08 2370.46 143.72C2370.46 114.36 2376 88.48 2387.07 66.84C2398.14 45.21 2413.31 28.66 2432.56 17.2C2451.81 5.74001 2473.73 0.0100098 2498.33 0.0100098C2518.93 0.0100098 2537.7 3.91001 2554.64 11.7C2571.57 19.49 2585.42 30.76 2596.17 45.5C2606.92 60.25 2613.78 77.79 2616.74 98.14H2565.94C2564.14 87.2 2560.11 77.73 2553.87 69.75L2553.86 69.73Z" fill="black"/>
</svg>
