<svg width="80" height="30" viewBox="0 0 80 30" fill="none" xmlns="http://www.w3.org/2000/svg">
<path d="M12.4936 4.73862C12.4936 5.87613 12.2302 6.76769 11.7034 7.40561C11.1766 8.04354 10.4781 8.48932 9.60397 8.74679C8.72984 9.00042 7.77173 9.12724 6.72965 9.12724C6.38992 9.12724 6.04638 9.11571 5.69901 9.08881C5.35165 9.06191 4.99284 9.03117 4.63021 8.99658V13.4236C4.63021 14.0692 4.68747 14.5611 4.79817 14.8993C4.90886 15.2375 5.13789 15.4642 5.48144 15.5872C5.82498 15.7102 6.33648 15.7678 7.01212 15.7678V16.2213H0V15.7678C0.694723 15.7678 1.20622 15.7063 1.53068 15.5872C1.85514 15.4681 2.06508 15.2375 2.16051 14.8993C2.25594 14.5611 2.30175 14.0692 2.30175 13.4236V3.14765C2.30175 2.48283 2.25594 1.97941 2.16814 1.64123C2.08035 1.29921 1.87041 1.06863 1.54595 0.949502C1.22149 0.830371 0.706174 0.768885 0 0.768885V0.350006H5.97767C6.7182 0.350006 7.47018 0.411493 8.23742 0.538309C9.00467 0.665126 9.70703 0.884172 10.3521 1.20313C10.9934 1.5221 11.5125 1.96788 11.9019 2.53663C12.2912 3.10538 12.4897 3.83938 12.4897 4.73862H12.4936ZM9.73757 4.95767C9.73757 3.9393 9.43601 3.06695 8.82908 2.34064C8.22215 1.61433 7.3633 1.25309 6.24869 1.25309C5.98912 1.25309 5.72192 1.27999 5.44708 1.33764C5.17225 1.39528 4.89741 1.44524 4.63021 1.48751V8.20878C4.95849 8.25105 5.29058 8.28948 5.61885 8.32023C5.94713 8.35097 6.28686 8.36634 6.63422 8.36634C7.2755 8.36634 7.82899 8.20494 8.29086 7.88213C8.75274 7.55933 9.11155 7.13661 9.35967 6.61781C9.60778 6.09902 9.73375 5.54948 9.73375 4.96151L9.73757 4.95767Z" fill="#221E1F"/>
<path d="M26.5979 4.73862C26.5979 5.87613 26.3345 6.76769 25.8077 7.40561C25.281 8.04354 24.5824 8.48932 23.7083 8.74679C22.8342 9.00042 21.8761 9.12724 20.834 9.12724C20.4943 9.12724 20.1507 9.11571 19.8034 9.08881C19.456 9.06191 19.0972 9.03117 18.7345 8.99658V13.4236C18.7345 14.0692 18.7918 14.5611 18.9025 14.8993C19.0132 15.2375 19.2422 15.4642 19.5858 15.5872C19.9293 15.7102 20.4408 15.7678 21.1165 15.7678V16.2213H14.1082V15.7678C14.8029 15.7678 15.3144 15.7063 15.6388 15.5872C15.9633 15.4681 16.1732 15.2375 16.2687 14.8993C16.3641 14.5611 16.4099 14.0692 16.4099 13.4236V3.14765C16.4099 2.48283 16.3641 1.97941 16.2763 1.64123C16.1885 1.29921 15.9786 1.06863 15.6541 0.949502C15.3296 0.830371 14.8143 0.768885 14.1082 0.768885V0.350006H20.0858C20.8264 0.350006 21.5783 0.411493 22.3456 0.538309C23.1128 0.665126 23.8152 0.884172 24.4603 1.20313C25.1016 1.5221 25.6207 1.96788 26.01 2.53663C26.3994 3.10538 26.5979 3.83938 26.5979 4.73862ZM23.8419 4.95767C23.8419 3.9393 23.5403 3.06695 22.9334 2.34064C22.3265 1.61433 21.4676 1.25309 20.353 1.25309C20.0935 1.25309 19.8263 1.27999 19.5514 1.33764C19.2766 1.39528 19.0018 1.44524 18.7345 1.48751V8.20878C19.0628 8.25105 19.3949 8.28948 19.7232 8.32023C20.0515 8.35097 20.3912 8.36634 20.7386 8.36634C21.3798 8.36634 21.9333 8.20494 22.3952 7.88213C22.8571 7.55933 23.2159 7.13661 23.464 6.61781C23.7121 6.09902 23.8381 5.54948 23.8381 4.96151L23.8419 4.95767Z" fill="#221E1F"/>
<path d="M43.7637 16.2248H37.2784V15.7714C37.6448 15.7714 38.0113 15.7099 38.3739 15.583C38.7403 15.4562 38.9236 15.1834 38.9236 14.7607C38.9236 14.5531 38.8625 14.2649 38.7441 13.8998C38.6258 13.5348 38.4769 13.1466 38.3014 12.7393C38.1258 12.3319 37.9654 11.963 37.8128 11.6248C37.6601 11.2867 37.5494 11.0522 37.4769 10.9139H31.1251C31.064 11.0446 30.9495 11.2751 30.7854 11.6133C30.6212 11.9515 30.4456 12.3243 30.2624 12.7393C30.0792 13.1543 29.9227 13.5463 29.7891 13.9191C29.6555 14.2918 29.5868 14.5724 29.5868 14.7607C29.5868 15.0374 29.7013 15.2449 29.9341 15.3871C30.167 15.5292 30.4342 15.6253 30.7358 15.6791C31.0373 15.7291 31.2931 15.7598 31.4992 15.7714V16.2248H26.3231V15.7714C26.8384 15.7445 27.2583 15.6061 27.5751 15.3563C27.892 15.1065 28.1592 14.7799 28.3767 14.3802C28.5943 13.9806 28.8119 13.5425 29.0257 13.0659L34.8163 0H35.2324L40.9314 13.1659C41.1451 13.6424 41.3551 14.0689 41.5612 14.4532C41.7673 14.8375 42.0345 15.145 42.3704 15.3717C42.7064 15.5984 43.172 15.7329 43.7675 15.7675V16.221L43.7637 16.2248ZM37.1448 10.0608L34.3506 3.58545L31.503 10.0608H37.1486H37.1448Z" fill="#221E1F"/>
<path d="M62.3647 0.350006V0.765042C61.6776 0.765042 61.1661 0.826528 60.834 0.945659C60.4981 1.06479 60.2805 1.29152 60.1774 1.62586C60.0744 1.96019 60.0248 2.4444 60.0248 3.08232V16.4711H59.5972L48.7489 3.69335V13.4544C48.7489 14.1115 48.7985 14.6034 48.8939 14.9377C48.9932 15.2682 49.2069 15.4911 49.5429 15.6026C49.8788 15.714 50.3864 15.7717 51.0735 15.7717V16.2251H45.3631V15.7717C46.0387 15.7717 46.5426 15.7102 46.8747 15.591C47.2068 15.4719 47.4243 15.2452 47.5312 14.9108C47.6381 14.5765 47.6915 14.0923 47.6915 13.4544V2.40981C47.2831 1.87565 46.9052 1.4683 46.5617 1.18776C46.2181 0.90723 45.6761 0.765042 44.9355 0.765042V0.350006H48.9474L58.9789 12.2477V3.08232C58.9789 2.4444 58.9254 1.95635 58.8185 1.62586C58.7117 1.29536 58.4903 1.06863 58.1582 0.945659C57.8223 0.826528 57.3146 0.765042 56.6275 0.765042V0.350006H62.3647Z" fill="#221E1F"/>
<path d="M79.9999 7.57472V7.98976C79.4121 7.98976 78.9884 8.08199 78.7288 8.26261C78.4693 8.44323 78.3089 8.70839 78.2479 9.05425C78.1868 9.40011 78.1524 9.81899 78.1524 10.3109V15.1645C77.2783 15.6641 76.3507 16.033 75.3621 16.2636C74.3734 16.4941 73.3772 16.6133 72.358 16.6133C70.6823 16.6133 69.1554 16.2943 67.785 15.6564C66.4109 15.0185 65.3191 14.0962 64.5099 12.8933C63.7007 11.6905 63.2922 10.234 63.2922 8.52393C63.2922 7.34031 63.5136 6.23354 63.9526 5.20364C64.3916 4.17374 65.01 3.26681 65.8001 2.49054C66.5903 1.71427 67.5102 1.10709 68.5675 0.66515C69.6249 0.223214 70.7662 0.00416756 71.9992 0.00416756C72.8275 0.00416756 73.5718 0.0848689 74.2246 0.250115C74.8811 0.41536 75.4155 0.576763 75.8316 0.742009C76.2477 0.907254 76.5072 0.987956 76.6141 0.987956C76.8355 0.987956 76.992 0.857296 77.0836 0.599821C77.1752 0.342345 77.221 0.142513 77.2325 0.00416756H77.66L78.0875 4.98844H77.66C77.2325 3.72027 76.5836 2.7019 75.7133 1.941C74.843 1.1801 73.6825 0.79581 72.2282 0.79581C71.1594 0.79581 70.2395 0.995642 69.4646 1.39915C68.6897 1.80266 68.056 2.34066 67.5522 3.0247C67.0483 3.7049 66.6781 4.48117 66.4338 5.34199C66.1933 6.20664 66.0711 7.0982 66.0711 8.0205C66.0711 8.94281 66.1971 9.86511 66.4528 10.7797C66.7086 11.6943 67.0941 12.5283 67.6094 13.2853C68.1248 14.0424 68.7813 14.6457 69.5753 15.0992C70.3692 15.5526 71.3083 15.7794 72.3962 15.7794C72.984 15.7794 73.568 15.7102 74.1482 15.5718C74.7284 15.4335 75.2667 15.2183 75.7667 14.9262V10.3186C75.7667 9.7306 75.7209 9.2733 75.6331 8.94665C75.5453 8.62 75.3468 8.38174 75.0453 8.23955C74.7437 8.09736 74.2742 8.01666 73.6405 8.00129V7.58625H79.9923L79.9999 7.57472Z" fill="#221E1F"/>
<path d="M22.7846 27.9259L23.0136 28.0911C22.8266 28.4178 22.5975 28.7137 22.3227 28.9827C22.0517 29.2517 21.7272 29.4669 21.3531 29.6245C20.9791 29.7859 20.5515 29.8666 20.0629 29.8666C19.3224 29.8666 18.6888 29.7129 18.162 29.4016C17.6352 29.0903 17.2344 28.6753 16.9558 28.1526C16.6771 27.63 16.5359 27.0497 16.5359 26.4195C16.5359 25.9353 16.6199 25.4741 16.784 25.0322C16.952 24.5902 17.1886 24.2021 17.5016 23.8601C17.8146 23.5181 18.1887 23.2491 18.6315 23.0531C19.0743 22.8571 19.5705 22.761 20.1278 22.761C20.5477 22.761 20.9027 22.8187 21.1966 22.9339C21.4906 23.0492 21.7578 23.1491 22.0021 23.2337C22.1433 23.2337 22.2387 23.1837 22.2922 23.08C22.3456 22.9762 22.3876 22.8686 22.4219 22.7572H22.6815L22.8304 25.1705H22.5937C22.4258 24.5787 22.1433 24.1022 21.7463 23.7371C21.3493 23.372 20.8569 23.1914 20.2729 23.1914C19.8339 23.1914 19.4636 23.2836 19.1621 23.4681C18.8605 23.6526 18.6201 23.9024 18.4368 24.2098C18.2536 24.5211 18.1238 24.8669 18.0437 25.2512C17.9635 25.6355 17.9215 26.0275 17.9215 26.4272C17.9215 26.9805 18.0131 27.4801 18.1964 27.9259C18.3796 28.3717 18.6582 28.7214 19.0285 28.9789C19.4026 29.2363 19.8683 29.367 20.4294 29.367C20.8149 29.367 21.147 29.3055 21.4218 29.1787C21.6967 29.0519 21.9448 28.8828 22.1624 28.6676C22.38 28.4524 22.5823 28.2064 22.7769 27.9336L22.7846 27.9259Z" fill="#221E1F"/>
<path d="M32.0946 27.6682L31.4419 29.705H25.8459V29.4437C26.2086 29.4437 26.4681 29.386 26.6246 29.2746C26.7812 29.1631 26.8613 28.9249 26.8613 28.5675V24.0405C26.8613 23.687 26.7812 23.4525 26.6246 23.3373C26.4681 23.222 26.2086 23.1643 25.8459 23.1643V22.903H29.1134V23.1643C28.7508 23.1643 28.4836 23.222 28.3156 23.3373C28.1477 23.4525 28.0637 23.687 28.0637 24.0405V28.3984C28.0637 28.725 28.1248 28.9402 28.2469 29.0517C28.3691 29.1593 28.6325 29.2131 29.0371 29.2131H29.686C30.0677 29.2131 30.3845 29.1708 30.6365 29.0901C30.8884 29.0094 31.106 28.8518 31.2892 28.6251C31.4724 28.3984 31.6557 28.0756 31.8389 27.649L32.0946 27.6644V27.6682Z" fill="#221E1F"/>
<path d="M37.9845 29.705H34.7743V29.4437C35.0682 29.4437 35.2858 29.4168 35.427 29.3668C35.5683 29.3168 35.6599 29.2208 35.7057 29.0824C35.7477 28.9441 35.7706 28.7442 35.7706 28.4791V24.152C35.7706 23.8906 35.7477 23.687 35.7057 23.5409C35.6599 23.3949 35.5683 23.295 35.427 23.2373C35.2858 23.1797 35.0682 23.1528 34.7743 23.1528V22.903H37.9845V23.1528C37.6944 23.1528 37.4768 23.1797 37.3356 23.2373C37.1944 23.295 37.0989 23.3949 37.0531 23.5409C37.0073 23.687 36.9844 23.8868 36.9844 24.152V28.4791C36.9844 28.7404 37.0073 28.9441 37.0493 29.0824C37.0951 29.2208 37.1867 29.3168 37.3318 29.3668C37.4768 29.4168 37.6944 29.4437 37.9883 29.4437V29.705H37.9845Z" fill="#221E1F"/>
<path d="M47.8977 22.9034V23.1532C47.6267 23.1532 47.4244 23.1762 47.2946 23.2224C47.1648 23.2685 47.0732 23.3569 47.0312 23.4875C46.9892 23.6182 46.9663 23.8103 46.9663 24.0601V29.8053H46.6457L42.1758 24.4406V28.5294C42.1758 28.7869 42.1987 28.9829 42.2521 29.1097C42.3017 29.2404 42.3972 29.3249 42.5346 29.371C42.672 29.4172 42.8819 29.4364 43.1568 29.4364V29.6977H40.6947V29.4364C40.9619 29.4364 41.1642 29.4133 41.3016 29.3634C41.4391 29.3134 41.5345 29.225 41.5841 29.0982C41.6337 28.9714 41.6605 28.7792 41.6605 28.5256V23.8065C41.5383 23.6451 41.4314 23.5144 41.3398 23.4183C41.2482 23.3223 41.1451 23.2531 41.0344 23.2108C40.9237 23.1686 40.7711 23.1455 40.5802 23.1455V22.8957H42.4926L46.4586 27.6725V24.0563C46.4586 23.8065 46.4357 23.6143 46.3861 23.4837C46.3365 23.353 46.2449 23.2646 46.1074 23.2185C45.97 23.1724 45.7639 23.1493 45.4929 23.1493V22.8996H47.9053L47.8977 22.9034Z" fill="#221E1F"/>
<path d="M53.7532 29.705H50.543V29.4437C50.8369 29.4437 51.0545 29.4168 51.1957 29.3668C51.3369 29.3168 51.4286 29.2208 51.4744 29.0824C51.5163 28.9441 51.5392 28.7442 51.5392 28.4791V24.152C51.5392 23.8906 51.5163 23.687 51.4744 23.5409C51.4286 23.3949 51.3369 23.295 51.1957 23.2373C51.0545 23.1797 50.8369 23.1528 50.543 23.1528V22.903H53.7532V23.1528C53.4631 23.1528 53.2455 23.1797 53.1043 23.2373C52.963 23.295 52.8676 23.3949 52.8218 23.5409C52.776 23.687 52.7531 23.8868 52.7531 24.152V28.4791C52.7531 28.7404 52.776 28.9441 52.818 29.0824C52.8638 29.2208 52.9554 29.3168 53.1005 29.3668C53.2455 29.4168 53.4631 29.4437 53.757 29.4437V29.705H53.7532Z" fill="#221E1F"/>
<path d="M62.8992 27.9259L63.1282 28.0911C62.9412 28.4178 62.7122 28.7137 62.4373 28.9827C62.1663 29.2517 61.8418 29.4669 61.4678 29.6245C61.0937 29.7859 60.6662 29.8666 60.1776 29.8666C59.437 29.8666 58.8034 29.7129 58.2766 29.4016C57.7499 29.0903 57.349 28.6753 57.0704 28.1526C56.7917 27.63 56.6505 27.0497 56.6505 26.4195C56.6505 25.9353 56.7345 25.4741 56.8986 25.0322C57.0666 24.5902 57.3032 24.2021 57.6163 23.8601C57.9293 23.5181 58.3033 23.2491 58.7461 23.0531C59.1889 22.8571 59.6852 22.761 60.2425 22.761C60.6623 22.761 61.0173 22.8187 61.3113 22.9339C61.6052 23.0492 61.8724 23.1491 62.1167 23.2337C62.2579 23.2337 62.3533 23.1837 62.4068 23.08C62.4602 22.9762 62.5022 22.8686 62.5366 22.7572H62.7961L62.945 25.1705H62.7083C62.5404 24.5787 62.2579 24.1022 61.8609 23.7371C61.4639 23.372 60.9715 23.1914 60.3875 23.1914C59.9485 23.1914 59.5783 23.2836 59.2767 23.4681C58.9752 23.6526 58.7347 23.9024 58.5515 24.2098C58.3682 24.5211 58.2384 24.8669 58.1583 25.2512C58.0781 25.6355 58.0361 26.0275 58.0361 26.4272C58.0361 26.9805 58.1277 27.4801 58.311 27.9259C58.4942 28.3717 58.7729 28.7214 59.1431 28.9789C59.5172 29.2363 59.9829 29.367 60.544 29.367C60.9295 29.367 61.2616 29.3055 61.5365 29.1787C61.8113 29.0519 62.0594 28.8828 62.277 28.6676C62.4946 28.4524 62.6969 28.2064 62.8916 27.9336L62.8992 27.9259Z" fill="#221E1F"/>
</svg>
