<svg width="210" height="223" viewBox="0 0 210 223" fill="none" xmlns="http://www.w3.org/2000/svg">
<path d="M91.1564 71.6067C91.1564 71.6067 93.4833 71.9972 94.6224 72.1437C99.3739 72.7783 104.158 72.8515 108.861 71.9484C120.373 69.7354 128.42 63.1776 132.293 52.031C135.417 43.0568 135.759 33.8466 132.521 24.848C129.087 15.3124 122.318 9.24278 112.115 7.76199C98.7312 5.81744 88.626 11.3094 81.157 22.1875C76.8774 28.4279 75.0955 35.4006 75.1281 42.9348C75.1932 58.8573 75.2013 74.7798 75.1362 90.7024C75.1037 97.8459 73.4276 104.583 69.1398 110.449C66.1783 114.509 62.5658 117.877 57.9607 120.05C57.562 120.253 56.8949 120.399 56.8949 120.399C56.8949 120.399 56.8949 119.448 56.8949 119.033C56.8949 95.9827 56.8298 72.9329 56.96 49.8912C57.0088 40.5834 58.8557 31.6254 63.6561 23.473C68.4808 15.288 75.1444 9.06378 83.8094 5.11773C94.5573 0.219741 105.81 -1.0251 117.453 0.797411C127.045 2.30261 135.629 5.93135 142.406 13.018C150.347 21.3169 153.919 31.3488 152.332 42.7476C150.103 58.7434 140.502 68.8567 125.638 74.3161C120.349 76.2606 114.833 77.0417 109.211 76.7732C102.905 76.4721 96.8436 74.2266 91.1482 71.6148L91.1564 71.6067Z" fill="#221E1F"/>
<path d="M32.73 157.198C32.73 160.158 32.04 162.478 30.66 164.138C29.28 165.798 27.45 166.958 25.16 167.628C22.87 168.288 20.36 168.618 17.63 168.618C16.74 168.618 15.84 168.588 14.93 168.518C14.02 168.448 13.08 168.368 12.13 168.278V179.798C12.13 181.478 12.28 182.758 12.57 183.638C12.86 184.518 13.46 185.108 14.36 185.428C15.26 185.748 16.6 185.898 18.37 185.898V187.078H0V185.898C1.82 185.898 3.16 185.738 4.01 185.428C4.86 185.118 5.41 184.518 5.66 183.638C5.91 182.758 6.03 181.478 6.03 179.798V153.058C6.03 151.328 5.91 150.018 5.68 149.138C5.45 148.248 4.9 147.648 4.05 147.338C3.2 147.028 1.85 146.868 0 146.868V145.778H15.66C17.6 145.778 19.57 145.938 21.58 146.268C23.59 146.598 25.43 147.168 27.12 147.998C28.8 148.828 30.16 149.988 31.18 151.468C32.2 152.948 32.72 154.858 32.72 157.198H32.73ZM25.51 157.768C25.51 155.118 24.72 152.848 23.13 150.958C21.54 149.068 19.29 148.128 16.37 148.128C15.69 148.128 14.99 148.198 14.27 148.348C13.55 148.498 12.83 148.628 12.13 148.738V166.228C12.99 166.338 13.86 166.438 14.72 166.518C15.58 166.598 16.47 166.638 17.38 166.638C19.06 166.638 20.51 166.218 21.72 165.378C22.93 164.538 23.87 163.438 24.52 162.088C25.17 160.738 25.5 159.308 25.5 157.778L25.51 157.768Z" fill="#221E1F"/>
<path d="M69.68 157.198C69.68 160.158 68.99 162.478 67.61 164.138C66.23 165.798 64.4 166.958 62.11 167.628C59.82 168.288 57.31 168.618 54.58 168.618C53.69 168.618 52.79 168.588 51.88 168.518C50.97 168.448 50.03 168.368 49.08 168.278V179.798C49.08 181.478 49.23 182.758 49.52 183.638C49.81 184.518 50.41 185.108 51.31 185.428C52.21 185.748 53.55 185.898 55.32 185.898V187.078H36.96V185.898C38.78 185.898 40.12 185.738 40.97 185.428C41.82 185.118 42.37 184.518 42.62 183.638C42.87 182.758 42.99 181.478 42.99 179.798V153.058C42.99 151.328 42.87 150.018 42.64 149.138C42.41 148.248 41.86 147.648 41.01 147.338C40.16 147.028 38.81 146.868 36.96 146.868V145.778H52.62C54.56 145.778 56.53 145.938 58.54 146.268C60.55 146.598 62.39 147.168 64.08 147.998C65.76 148.828 67.12 149.988 68.14 151.468C69.16 152.948 69.68 154.858 69.68 157.198ZM62.46 157.768C62.46 155.118 61.67 152.848 60.08 150.958C58.49 149.068 56.24 148.128 53.32 148.128C52.64 148.128 51.94 148.198 51.22 148.348C50.5 148.498 49.78 148.628 49.08 148.738V166.228C49.94 166.338 50.81 166.438 51.67 166.518C52.53 166.598 53.42 166.638 54.33 166.638C56.01 166.638 57.46 166.218 58.67 165.378C59.88 164.538 60.82 163.438 61.47 162.088C62.12 160.738 62.45 159.308 62.45 157.778L62.46 157.768Z" fill="#221E1F"/>
<path d="M114.65 187.088H97.66V185.908C98.62 185.908 99.58 185.748 100.53 185.418C101.49 185.088 101.97 184.378 101.97 183.278C101.97 182.738 101.81 181.988 101.5 181.038C101.19 180.088 100.8 179.078 100.34 178.018C99.88 176.958 99.46 175.998 99.06 175.118C98.66 174.238 98.37 173.628 98.18 173.268H81.54C81.38 173.608 81.08 174.208 80.65 175.088C80.22 175.968 79.76 176.938 79.28 178.018C78.8 179.098 78.39 180.118 78.04 181.088C77.69 182.058 77.51 182.788 77.51 183.278C77.51 183.998 77.81 184.538 78.42 184.908C79.03 185.278 79.73 185.528 80.52 185.668C81.31 185.798 81.98 185.878 82.52 185.908V187.088H68.96V185.908C70.31 185.838 71.41 185.478 72.24 184.828C73.07 184.178 73.77 183.328 74.34 182.288C74.91 181.248 75.48 180.108 76.04 178.868L91.21 144.868H92.3L107.23 179.128C107.79 180.368 108.34 181.478 108.88 182.478C109.42 183.478 110.12 184.278 111 184.868C111.88 185.458 113.1 185.808 114.66 185.898V187.078L114.65 187.088ZM97.31 171.048L89.99 154.198L82.53 171.048H97.32H97.31Z" fill="#221E1F"/>
<path d="M163.38 145.778V146.858C161.58 146.858 160.24 147.018 159.37 147.328C158.49 147.638 157.92 148.228 157.65 149.098C157.38 149.968 157.25 151.228 157.25 152.888V187.728H156.13L127.71 154.478V179.878C127.71 181.588 127.84 182.868 128.09 183.738C128.35 184.598 128.91 185.178 129.79 185.468C130.67 185.758 132 185.908 133.8 185.908V187.088H118.84V185.908C120.61 185.908 121.93 185.748 122.8 185.438C123.67 185.128 124.24 184.538 124.52 183.668C124.8 182.798 124.94 181.538 124.94 179.878V151.138C123.87 149.748 122.88 148.688 121.98 147.958C121.08 147.228 119.66 146.858 117.72 146.858V145.778H128.23L154.51 176.738V152.888C154.51 151.228 154.37 149.958 154.09 149.098C153.81 148.238 153.23 147.648 152.36 147.328C151.48 147.018 150.15 146.858 148.35 146.858V145.778H163.38Z" fill="#221E1F"/>
<path d="M209.58 164.577V165.657C208.04 165.657 206.93 165.897 206.25 166.367C205.57 166.837 205.15 167.527 204.99 168.427C204.83 169.327 204.74 170.417 204.74 171.697V184.327C202.45 185.627 200.02 186.587 197.43 187.187C194.84 187.787 192.23 188.097 189.56 188.097C185.17 188.097 181.17 187.267 177.58 185.607C173.98 183.947 171.12 181.547 169 178.417C166.88 175.287 165.81 171.497 165.81 167.047C165.81 163.967 166.39 161.087 167.54 158.407C168.69 155.727 170.31 153.367 172.38 151.347C174.45 149.327 176.86 147.747 179.63 146.597C182.4 145.447 185.39 144.877 188.62 144.877C190.79 144.877 192.74 145.087 194.45 145.517C196.17 145.947 197.57 146.367 198.66 146.797C199.75 147.227 200.43 147.437 200.71 147.437C201.29 147.437 201.7 147.097 201.94 146.427C202.18 145.757 202.3 145.237 202.33 144.877H203.45L204.57 157.847H203.45C202.33 154.547 200.63 151.897 198.35 149.917C196.07 147.937 193.03 146.937 189.22 146.937C186.42 146.937 184.01 147.457 181.98 148.507C179.95 149.557 178.29 150.957 176.97 152.737C175.65 154.507 174.68 156.527 174.04 158.767C173.41 161.017 173.09 163.337 173.09 165.737C173.09 168.137 173.42 170.537 174.09 172.917C174.76 175.297 175.77 177.467 177.12 179.437C178.47 181.407 180.19 182.977 182.27 184.157C184.35 185.337 186.81 185.927 189.66 185.927C191.2 185.927 192.73 185.747 194.25 185.387C195.77 185.027 197.18 184.467 198.49 183.707V171.717C198.49 170.187 198.37 168.997 198.14 168.147C197.91 167.297 197.39 166.677 196.6 166.307C195.81 165.937 194.58 165.727 192.92 165.687V164.607H209.56L209.58 164.577Z" fill="#221E1F"/>
<path d="M59.69 217.538L60.29 217.968C59.8 218.818 59.2 219.588 58.48 220.288C57.77 220.988 56.92 221.548 55.94 221.958C54.96 222.378 53.84 222.588 52.56 222.588C50.62 222.588 48.96 222.188 47.58 221.378C46.2 220.568 45.15 219.488 44.42 218.128C43.69 216.768 43.32 215.258 43.32 213.618C43.32 212.358 43.54 211.158 43.97 210.008C44.41 208.858 45.03 207.848 45.85 206.958C46.67 206.068 47.65 205.368 48.81 204.858C49.97 204.348 51.27 204.098 52.73 204.098C53.83 204.098 54.76 204.248 55.53 204.548C56.3 204.848 57 205.108 57.64 205.328C58.01 205.328 58.26 205.198 58.4 204.928C58.54 204.658 58.65 204.378 58.74 204.088H59.42L59.81 210.368H59.19C58.75 208.828 58.01 207.588 56.97 206.638C55.93 205.688 54.64 205.218 53.11 205.218C51.96 205.218 50.99 205.458 50.2 205.938C49.41 206.418 48.78 207.068 48.3 207.868C47.82 208.678 47.48 209.578 47.27 210.578C47.06 211.578 46.95 212.598 46.95 213.638C46.95 215.078 47.19 216.378 47.67 217.538C48.15 218.698 48.88 219.608 49.85 220.278C50.83 220.948 52.05 221.288 53.52 221.288C54.53 221.288 55.4 221.128 56.12 220.798C56.84 220.468 57.49 220.028 58.06 219.468C58.63 218.908 59.16 218.268 59.67 217.558L59.69 217.538Z" fill="#221E1F"/>
<path d="M84.08 216.868L82.37 222.168H67.71V221.488C68.66 221.488 69.34 221.338 69.75 221.048C70.16 220.758 70.37 220.138 70.37 219.208V207.428C70.37 206.508 70.16 205.898 69.75 205.598C69.34 205.298 68.66 205.148 67.71 205.148V204.468H76.27V205.148C75.32 205.148 74.62 205.298 74.18 205.598C73.74 205.898 73.52 206.508 73.52 207.428V218.768C73.52 219.618 73.68 220.178 74 220.468C74.32 220.748 75.01 220.888 76.07 220.888H77.77C78.77 220.888 79.6 220.778 80.26 220.568C80.92 220.358 81.49 219.948 81.97 219.358C82.45 218.768 82.93 217.928 83.41 216.818L84.08 216.858V216.868Z" fill="#221E1F"/>
<path d="M99.51 222.168H91.1V221.488C91.87 221.488 92.44 221.418 92.81 221.288C93.18 221.158 93.42 220.908 93.54 220.548C93.65 220.188 93.71 219.668 93.71 218.978V207.718C93.71 207.038 93.65 206.508 93.54 206.128C93.42 205.748 93.18 205.488 92.81 205.338C92.44 205.188 91.87 205.118 91.1 205.118V204.468H99.51V205.118C98.75 205.118 98.18 205.188 97.81 205.338C97.44 205.488 97.19 205.748 97.07 206.128C96.95 206.508 96.89 207.028 96.89 207.718V218.978C96.89 219.658 96.95 220.188 97.06 220.548C97.18 220.908 97.42 221.158 97.8 221.288C98.18 221.418 98.75 221.488 99.52 221.488V222.168H99.51Z" fill="#221E1F"/>
<path d="M125.48 204.468V205.118C124.77 205.118 124.24 205.178 123.9 205.298C123.56 205.418 123.32 205.648 123.21 205.988C123.1 206.328 123.04 206.828 123.04 207.478V222.428H122.2L110.49 208.468V219.108C110.49 219.778 110.55 220.288 110.69 220.618C110.82 220.958 111.07 221.178 111.43 221.298C111.79 221.418 112.34 221.468 113.06 221.468V222.148H106.61V221.468C107.31 221.468 107.84 221.408 108.2 221.278C108.56 221.148 108.81 220.918 108.94 220.588C109.07 220.258 109.14 219.758 109.14 219.098V206.818C108.82 206.398 108.54 206.058 108.3 205.808C108.06 205.558 107.79 205.378 107.5 205.268C107.21 205.158 106.81 205.098 106.31 205.098V204.448H111.32L121.71 216.878V207.468C121.71 206.818 121.65 206.318 121.52 205.978C121.39 205.638 121.15 205.408 120.79 205.288C120.43 205.168 119.89 205.108 119.18 205.108V204.458H125.5L125.48 204.468Z" fill="#221E1F"/>
<path d="M140.82 222.168H132.41V221.488C133.18 221.488 133.75 221.418 134.12 221.288C134.49 221.158 134.73 220.908 134.85 220.548C134.96 220.188 135.02 219.668 135.02 218.978V207.718C135.02 207.038 134.96 206.508 134.85 206.128C134.73 205.748 134.49 205.488 134.12 205.338C133.75 205.188 133.18 205.118 132.41 205.118V204.468H140.82V205.118C140.06 205.118 139.49 205.188 139.12 205.338C138.75 205.488 138.5 205.748 138.38 206.128C138.26 206.508 138.2 207.028 138.2 207.718V218.978C138.2 219.658 138.26 220.188 138.37 220.548C138.49 220.908 138.73 221.158 139.11 221.288C139.49 221.418 140.06 221.488 140.83 221.488V222.168H140.82Z" fill="#221E1F"/>
<path d="M164.78 217.538L165.38 217.968C164.89 218.818 164.29 219.588 163.57 220.288C162.86 220.988 162.01 221.548 161.03 221.958C160.05 222.378 158.93 222.588 157.65 222.588C155.71 222.588 154.05 222.188 152.67 221.378C151.29 220.568 150.24 219.488 149.51 218.128C148.78 216.768 148.41 215.258 148.41 213.618C148.41 212.358 148.63 211.158 149.06 210.008C149.5 208.858 150.12 207.848 150.94 206.958C151.76 206.068 152.74 205.368 153.9 204.858C155.06 204.348 156.36 204.098 157.82 204.098C158.92 204.098 159.85 204.248 160.62 204.548C161.39 204.848 162.09 205.108 162.73 205.328C163.1 205.328 163.35 205.198 163.49 204.928C163.63 204.658 163.74 204.378 163.83 204.088H164.51L164.9 210.368H164.28C163.84 208.828 163.1 207.588 162.06 206.638C161.02 205.688 159.73 205.218 158.2 205.218C157.05 205.218 156.08 205.458 155.29 205.938C154.5 206.418 153.87 207.068 153.39 207.868C152.91 208.678 152.57 209.578 152.36 210.578C152.15 211.578 152.04 212.598 152.04 213.638C152.04 215.078 152.28 216.378 152.76 217.538C153.24 218.698 153.97 219.608 154.94 220.278C155.92 220.948 157.14 221.288 158.61 221.288C159.62 221.288 160.49 221.128 161.21 220.798C161.93 220.468 162.58 220.028 163.15 219.468C163.72 218.908 164.25 218.268 164.76 217.558L164.78 217.538Z" fill="#221E1F"/>
</svg>
