<svg width="80" height="30" viewBox="0 0 80 30" fill="none" xmlns="http://www.w3.org/2000/svg">
<path d="M5.33496 0.850006C5.07189 0.905008 4.80821 0.952989 4.55176 0.993561L4.12988 1.05997V13.4232C4.12988 14.0877 4.18811 14.6423 4.32324 15.0551C4.41158 15.3248 4.55717 15.5462 4.74805 15.7211H2.24023C2.42793 15.5387 2.5645 15.3085 2.6416 15.0356C2.7561 14.6298 2.80176 14.0816 2.80176 13.4232V3.14786C2.80176 2.55491 2.76678 2.05661 2.68848 1.67325L2.65234 1.51602C2.58458 1.2526 2.46085 1.02921 2.29004 0.850006H5.33496ZM10.2373 4.95743C10.2373 3.83225 9.90127 2.84371 9.21289 2.01993C8.78234 1.50469 8.24676 1.15337 7.62207 0.953522C7.79912 0.975766 7.97737 1.00208 8.15625 1.03165C8.87979 1.15127 9.53447 1.35688 10.1309 1.65176V1.65079C10.6988 1.93346 11.1505 2.32405 11.4893 2.81876C11.8074 3.28356 11.9893 3.91174 11.9893 4.73868V4.87833C11.9685 5.87087 11.7274 6.59078 11.3174 7.08731C10.9178 7.57113 10.4013 7.93359 9.75 8.17227L9.46289 8.267C9.04992 8.38673 8.61479 8.47629 8.15723 8.53653C8.30242 8.46626 8.44309 8.38606 8.57715 8.29239C9.11038 7.91971 9.52556 7.4293 9.81055 6.8334C10.061 6.30976 10.2004 5.75661 10.2275 5.17227L10.2373 5.16348V4.95743Z" fill="white" stroke="white"/>
<path d="M19.4393 0.850006C19.1762 0.905001 18.9125 0.952993 18.6561 0.993561L18.2342 1.05997V13.4232C18.2342 14.0877 18.2924 14.6423 18.4276 15.0551C18.5159 15.3248 18.6615 15.5462 18.8524 15.7211H16.3484C16.5362 15.5387 16.6727 15.3085 16.7498 15.0356C16.8643 14.6298 16.91 14.0816 16.91 13.4232V3.14786C16.91 2.55491 16.875 2.05661 16.7967 1.67325L16.7606 1.51602C16.6928 1.2526 16.5691 1.02921 16.3983 0.850006H19.4393ZM24.3416 4.95743C24.3416 3.83225 24.0056 2.84372 23.3172 2.01993C22.886 1.50388 22.3494 1.15222 21.7234 0.952545C21.9028 0.974982 22.0833 1.0017 22.2645 1.03165C22.988 1.15127 23.6427 1.35688 24.2391 1.65176V1.65079C24.807 1.93346 25.2588 2.32405 25.5975 2.81876C25.9157 3.28356 26.0975 3.91174 26.0975 4.73868C26.0975 5.80364 25.8516 6.56778 25.4227 7.08731C25.023 7.57129 24.5058 7.93355 23.8543 8.17227L23.5672 8.267C23.1545 8.38664 22.7197 8.4763 22.2625 8.53653C22.4074 8.46635 22.5476 8.38589 22.6815 8.29239C23.2147 7.91971 23.6299 7.4293 23.9149 6.8334C24.1653 6.30976 24.3047 5.75662 24.3318 5.17227L24.3416 5.16348V4.95743Z" fill="white" stroke="white"/>
<path d="M40.4726 13.3643L40.4755 13.3701C40.6937 13.8565 40.9089 14.294 41.121 14.6895C41.3439 15.1048 41.6359 15.4545 42.0058 15.7246H39.0703C39.1181 15.6749 39.1623 15.62 39.2021 15.5605C39.3622 15.3211 39.4238 15.0432 39.4238 14.7607C39.4238 14.4728 39.3421 14.124 39.2197 13.7461C39.0956 13.3633 38.9411 12.9597 38.7607 12.541C38.585 12.1334 38.423 11.7612 38.2685 11.4189C38.1158 11.0808 37.9999 10.8343 37.9199 10.6816L37.7792 10.4141H37.1484V10.0586L37.6035 9.8623L34.8095 3.3877L34.3554 2.33398L33.8925 3.38379L31.0458 9.85938L30.7372 10.5605H30.7382L30.6718 10.7021C30.6127 10.8286 30.5035 11.0491 30.3359 11.3945C30.1937 11.6874 30.0431 12.0078 29.8857 12.3584L35.0204 0.770508L40.4726 13.3643ZM29.7685 12.6221C29.5966 13.0162 29.447 13.3909 29.3183 13.75C29.1829 14.1279 29.0869 14.4792 29.0869 14.7607C29.0869 15.1546 29.2438 15.4896 29.5449 15.7246H27.914C28.2776 15.4308 28.5775 15.0578 28.8163 14.6191C29.0403 14.2078 29.2637 13.7581 29.4824 13.2705V13.2686L29.7685 12.6221Z" fill="white" stroke="white"/>
<path d="M48.1914 2.24063L48.0889 2.10587C47.6881 1.58176 47.3016 1.16011 46.9346 0.850006H48.7148L58.5967 12.5697L59.4785 13.6166V3.08243C59.4785 2.42862 59.4252 1.8779 59.2939 1.47208C59.2146 1.22675 59.0881 1.01865 58.9209 0.850006H60.0674C59.9005 1.02025 59.7756 1.23118 59.6992 1.47891C59.5739 1.88585 59.5244 2.43023 59.5244 3.08243V15.6127L49.1299 3.36954L48.249 2.33145V13.4545C48.249 14.1264 48.2986 14.6732 48.4131 15.0746L48.415 15.0815C48.4918 15.3372 48.6218 15.553 48.7979 15.725H47.5977C47.7839 15.5491 47.9233 15.3272 48.0078 15.0629C48.1383 14.6547 48.1914 14.1092 48.1914 13.4545V2.24063Z" fill="white" stroke="white"/>
<path d="M69.2337 0.955338C68.3939 1.39266 67.7011 1.98 67.1507 2.72682C66.6076 3.46003 66.2116 4.29218 65.9525 5.20534V5.20827C65.6997 6.11694 65.5716 7.05369 65.5716 8.02077C65.5716 8.98892 65.7032 9.95646 65.971 10.9143C66.2409 11.8795 66.6498 12.7633 67.1966 13.5667C67.7552 14.3872 68.4683 15.0428 69.3275 15.5335C69.5746 15.6746 69.8342 15.7924 70.1038 15.8928C69.3607 15.7408 68.6581 15.5114 67.9964 15.2034L67.9954 15.2024C66.7007 14.6013 65.6812 13.7382 64.9251 12.6145C64.1803 11.5075 63.7923 10.1517 63.7923 8.5237C63.7923 7.40423 64.0012 6.36451 64.4124 5.39967C64.8259 4.42959 65.4075 3.57707 66.1507 2.84694C66.8939 2.11685 67.7597 1.54439 68.7601 1.12624C68.9302 1.05515 69.1035 0.991806 69.2786 0.932877C69.2637 0.940465 69.2485 0.947609 69.2337 0.955338ZM78.1751 8.0862C77.9535 8.32743 77.8151 8.62792 77.7552 8.96706C77.6879 9.34787 77.6527 9.79693 77.6526 10.3108V14.8674C76.8937 15.2735 76.0948 15.5792 75.2484 15.7766C75.1769 15.7933 75.105 15.8071 75.0335 15.8225C75.3756 15.6951 75.7044 15.5413 76.0189 15.3577L76.2669 15.2132V10.3186C76.2669 9.71222 76.2198 9.20464 76.1155 8.81667C76.0379 8.52803 75.8955 8.2811 75.6946 8.0862H78.1751ZM75.6468 1.20631C75.8604 1.29114 76.0428 1.35753 76.1898 1.40358C76.3169 1.44343 76.4757 1.48756 76.6146 1.48756C76.8313 1.48748 77.0416 1.42107 77.2171 1.27565C77.2337 1.26188 77.2466 1.24437 77.262 1.22975L77.4378 3.2776C77.0565 2.61955 76.593 2.04614 76.0423 1.56471C75.8667 1.41118 75.6815 1.27181 75.4866 1.14674C75.542 1.16708 75.5957 1.18604 75.6468 1.20631Z" fill="white" stroke="white"/>
<path d="M17.8855 24.181C17.736 24.4818 17.6263 24.8042 17.5544 25.1488C17.4675 25.5656 17.4216 25.9922 17.4216 26.4271C17.4216 27.036 17.5228 27.6013 17.7341 28.1156C17.8275 28.3428 17.9438 28.5508 18.0808 28.7396C17.795 28.5118 17.5688 28.2391 17.3972 27.9173C17.1594 27.4713 17.0359 26.9723 17.0359 26.4193C17.0359 25.9956 17.109 25.5945 17.2517 25.2093C17.398 24.8246 17.6021 24.4913 17.8708 24.1976C17.8758 24.1922 17.8805 24.1864 17.8855 24.181Z" fill="white" stroke="white"/>
<path d="M27.6682 23.403C27.59 23.6072 27.5637 23.8317 27.5637 24.0407V28.3981C27.5637 28.6614 27.5963 28.9604 27.7375 29.2048H27.2629C27.3378 28.9983 27.3615 28.7721 27.3615 28.5671V24.0407C27.3615 23.8324 27.3366 23.6077 27.2609 23.403H27.6682Z" fill="white" stroke="white"/>
<path d="M36.5731 23.403C36.5079 23.6172 36.4843 23.8712 36.4843 24.152V28.4792C36.4843 28.7499 36.5074 29.0013 36.5653 29.2048H36.1903C36.2481 29.0019 36.2704 28.7539 36.2704 28.4792V24.152C36.2704 23.9392 36.2567 23.7419 36.2245 23.568L36.1864 23.403H36.5731Z" fill="white" stroke="white"/>
<path d="M42.2579 23.3957L46.0743 27.9914L46.4659 28.4631V28.8088L42.5596 24.1203L42.1602 23.6408V23.6389L42.0587 23.5051C42.0301 23.4673 42.0006 23.4314 41.9727 23.3957H42.2579Z" fill="white" stroke="white"/>
<path d="M52.3417 23.403C52.2765 23.6172 52.2529 23.8712 52.2529 24.152V28.4792C52.2529 28.7499 52.276 29.0013 52.3339 29.2048H51.9589C52.0167 29.0019 52.039 28.7539 52.039 28.4792V24.152C52.039 23.9392 52.0254 23.7419 51.9931 23.568L51.955 23.403H52.3417Z" fill="white" stroke="white"/>
<path d="M58.0001 24.181C57.8506 24.4818 57.7409 24.8042 57.669 25.1488C57.5821 25.5656 57.5362 25.9922 57.5362 26.4271C57.5362 27.036 57.6374 27.6013 57.8487 28.1156C57.9421 28.3428 58.0583 28.5508 58.1954 28.7396C57.9095 28.5118 57.6834 28.2391 57.5118 27.9173C57.2739 27.4713 57.1505 26.9723 57.1505 26.4193C57.1505 25.9956 57.2236 25.5945 57.3663 25.2093C57.5126 24.8246 57.7167 24.4913 57.9854 24.1976C57.9904 24.1922 57.995 24.1864 58.0001 24.181Z" fill="white" stroke="white"/>
</svg>
