<?xml version="1.0" encoding="UTF-8"?>
<svg id="_레이어_2" data-name="레이어 2" xmlns="http://www.w3.org/2000/svg" xmlns:xlink="http://www.w3.org/1999/xlink" viewBox="0 0 2616.73 287.42">
  <defs>
    <style>
      .cls-1 {
        fill: url(#_무제_그라디언트);
      }

      .cls-2 {
        fill: url(#_무제_그라디언트-2);
      }

      .cls-3 {
        fill: url(#_무제_그라디언트-7);
      }

      .cls-4 {
        fill: url(#_무제_그라디언트-9);
      }

      .cls-5 {
        fill: url(#_무제_그라디언트-4);
      }

      .cls-6 {
        fill: url(#_무제_그라디언트-8);
      }

      .cls-7 {
        fill: url(#_무제_그라디언트-3);
      }

      .cls-8 {
        fill: url(#_무제_그라디언트-5);
      }

      .cls-9 {
        fill: url(#_무제_그라디언트-6);
      }

      .cls-10 {
        fill: url(#_무제_그라디언트-11);
      }

      .cls-11 {
        fill: url(#_무제_그라디언트-10);
      }
    </style>
    <linearGradient id="_무제_그라디언트" data-name="무제 그라디언트" x1="101.7" y1="-8.58" x2="101.7" y2="287.86" gradientUnits="userSpaceOnUse">
      <stop offset="0" stop-color="#f2ede6"/>
      <stop offset="1" stop-color="#1f1d1d"/>
    </linearGradient>
    <linearGradient id="_무제_그라디언트-2" data-name="무제 그라디언트" x1="345.85" y1="-8.58" x2="345.85" y2="287.86" xlink:href="#_무제_그라디언트"/>
    <linearGradient id="_무제_그라디언트-3" data-name="무제 그라디언트" x1="568.57" y1="-8.58" x2="568.57" y2="287.86" xlink:href="#_무제_그라디언트"/>
    <linearGradient id="_무제_그라디언트-4" data-name="무제 그라디언트" x1="846.71" y1="-8.58" x2="846.71" y2="287.86" xlink:href="#_무제_그라디언트"/>
    <linearGradient id="_무제_그라디언트-5" data-name="무제 그라디언트" x1="1130.56" y1="-8.58" x2="1130.56" y2="287.86" xlink:href="#_무제_그라디언트"/>
    <linearGradient id="_무제_그라디언트-6" data-name="무제 그라디언트" x1="1510.41" y1="-8.58" x2="1510.41" y2="287.86" xlink:href="#_무제_그라디언트"/>
    <linearGradient id="_무제_그라디언트-7" data-name="무제 그라디언트" x1="1763.74" y1="-8.58" x2="1763.74" y2="287.86" xlink:href="#_무제_그라디언트"/>
    <linearGradient id="_무제_그라디언트-8" data-name="무제 그라디언트" x1="1916.14" y1="-8.58" x2="1916.14" y2="287.86" xlink:href="#_무제_그라디언트"/>
    <linearGradient id="_무제_그라디언트-9" data-name="무제 그라디언트" x1="2108.24" y1="-8.58" x2="2108.24" y2="287.86" xlink:href="#_무제_그라디언트"/>
    <linearGradient id="_무제_그라디언트-10" data-name="무제 그라디언트" x1="2300.34" y1="-8.58" x2="2300.34" y2="287.86" xlink:href="#_무제_그라디언트"/>
    <linearGradient id="_무제_그라디언트-11" data-name="무제 그라디언트" x1="2493.59" y1="-8.58" x2="2493.59" y2="287.86" xlink:href="#_무제_그라디언트"/>
  </defs>
  <g id="_레이어_1-2" data-name="레이어 1">
    <g>
      <path class="cls-1" d="M0,3.86h104.69c20.86,0,38.73,3.93,53.6,11.78,14.87,7.86,26.11,18.77,33.71,32.74,7.6,13.97,11.4,30.04,11.4,48.19s-3.86,33.97-11.59,47.81c-7.73,13.84-19.03,24.72-33.9,32.64-14.87,7.92-32.87,11.88-53.99,11.88H34.38v-41.53h62.78c12.36,0,22.63-2.15,30.81-6.47,8.18-4.31,14.23-10.27,18.16-17.87,3.93-7.6,5.89-16.42,5.89-26.46s-1.96-19.22-5.89-26.75c-3.93-7.53-10.01-13.39-18.25-17.58-8.24-4.18-18.54-6.28-30.91-6.28h-46.74v237.59H0V3.86Z"/>
      <path class="cls-2" d="M244.15,3.86h104.69c20.86,0,38.73,3.93,53.6,11.78,14.87,7.86,26.11,18.77,33.71,32.74,7.6,13.97,11.4,30.04,11.4,48.19s-3.86,33.97-11.59,47.81c-7.73,13.84-19.03,24.72-33.9,32.64-14.87,7.92-32.87,11.88-53.99,11.88h-69.54v-41.53h62.78c12.36,0,22.63-2.15,30.81-6.47,8.18-4.31,14.23-10.27,18.16-17.87,3.93-7.6,5.89-16.42,5.89-26.46s-1.96-19.22-5.89-26.75c-3.93-7.53-10.01-13.39-18.25-17.58-8.24-4.18-18.54-6.28-30.91-6.28h-46.74v237.59h-50.22V3.86Z"/>
      <path class="cls-7" d="M439.05,283.56L537.56,3.86h62l98.51,279.7h-53.7l-74.75-222.52h-2.32l-74.75,222.52h-53.5ZM642.06,173.84v40.37h-147.38v-40.37h147.38Z"/>
      <path class="cls-5" d="M961.55,283.56h-44.62l-132.31-191.04h-2.51v191.04h-50.22V3.86h45.2l131.93,191.23h2.51V3.86h50.03v279.7Z"/>
      <path class="cls-8" d="M1187.35,67.32c-6.18-7.15-13.65-12.62-22.41-16.42-8.76-3.8-18.74-5.7-29.94-5.7-15.2,0-28.65,3.83-40.37,11.49-11.72,7.66-20.93,18.87-27.62,33.61-6.7,14.75-10.04,32.48-10.04,53.21s3.28,38.7,9.85,53.51c6.57,14.81,15.81,26.05,27.72,33.71,11.91,7.66,25.79,11.49,41.63,11.49,14.16,0,26.49-2.73,36.99-8.21,10.49-5.47,18.57-13.33,24.24-23.57,5.66-10.24,8.5-22.05,8.5-35.44l11.4,1.74h-76.1v-39.6h113.38v33.61c0,23.44-5.06,43.98-15.16,61.62-10.11,17.64-24.11,31.23-42.01,40.76-17.9,9.53-38.38,14.29-61.42,14.29-25.63,0-48.19-5.83-67.7-17.48-19.51-11.65-34.67-28.3-45.49-49.93-10.82-21.63-16.23-47-16.23-76.1s5.54-55.05,16.61-76.68c11.07-21.63,26.27-38.25,45.59-49.83S1109.89,0,1134.23,0c20.48,0,39.15,3.93,56.02,11.78,16.87,7.86,30.74,18.8,41.63,32.84,10.88,14.04,17.74,30.2,20.57,48.48h-51.38c-2.96-10.04-7.53-18.64-13.71-25.79Z"/>
      <path class="cls-9" d="M1570.68,69.73c-6.25-7.98-14.1-14.07-23.57-18.25-9.46-4.18-19.87-6.28-31.2-6.28-15.33,0-28.88,3.83-40.66,11.49-11.78,7.66-20.99,18.9-27.62,33.71-6.63,14.81-9.95,32.58-9.95,53.31s3.31,38.86,9.95,53.6c6.63,14.75,15.84,25.92,27.62,33.51,11.78,7.6,25.27,11.4,40.47,11.4,11.2,0,21.44-2.03,30.71-6.08,9.27-4.06,17.09-9.95,23.47-17.67,6.38-7.73,10.65-16.93,12.85-27.62l50.8.19c-2.58,17.9-9.08,34.19-19.51,48.87-10.43,14.68-24.15,26.27-41.14,34.77s-36.25,12.75-57.75,12.75c-24.6,0-46.58-5.76-65.96-17.29-19.38-11.52-34.54-28.13-45.49-49.83-10.95-21.7-16.42-47.23-16.42-76.59s5.54-55.24,16.61-76.88c11.07-21.63,26.24-38.18,45.49-49.64,19.25-11.46,41.17-17.19,65.77-17.19,20.6,0,39.37,3.9,56.31,11.69,16.93,7.79,30.78,19.06,41.53,33.8,10.75,14.75,17.61,32.29,20.57,52.64h-50.8c-1.8-10.94-5.83-20.41-12.07-28.39Z"/>
      <path class="cls-3" d="M1676.82,3.86h50.22v237.39h123.62v42.3h-173.84V3.86Z"/>
      <path class="cls-6" d="M1941.25,283.56h-50.22V3.86h50.22v279.7Z"/>
      <path class="cls-4" d="M2223.07,283.56h-44.62l-132.31-191.04h-2.51v191.04h-50.22V3.86h45.2l131.93,191.23h2.51V3.86h50.03v279.7Z"/>
      <path class="cls-11" d="M2325.45,283.56h-50.22V3.86h50.22v279.7Z"/>
      <path class="cls-10" d="M2553.86,69.73c-6.25-7.98-14.1-14.07-23.57-18.25-9.46-4.18-19.87-6.28-31.2-6.28-15.33,0-28.88,3.83-40.66,11.49-11.78,7.66-20.99,18.9-27.62,33.71-6.63,14.81-9.95,32.58-9.95,53.31s3.31,38.86,9.95,53.6c6.63,14.75,15.84,25.92,27.62,33.51,11.78,7.6,25.27,11.4,40.47,11.4,11.2,0,21.44-2.03,30.71-6.08,9.27-4.06,17.09-9.95,23.47-17.67,6.38-7.73,10.65-16.93,12.85-27.62l50.8.19c-2.58,17.9-9.08,34.19-19.51,48.87-10.43,14.68-24.15,26.27-41.14,34.77s-36.25,12.75-57.75,12.75c-24.6,0-46.58-5.76-65.96-17.29-19.38-11.52-34.54-28.13-45.49-49.83-10.95-21.7-16.42-47.23-16.42-76.59s5.54-55.24,16.61-76.88c11.07-21.63,26.24-38.18,45.49-49.64,19.25-11.46,41.17-17.19,65.77-17.19,20.6,0,39.37,3.9,56.31,11.69,16.93,7.79,30.78,19.06,41.53,33.8,10.75,14.75,17.61,32.29,20.57,52.64h-50.8c-1.8-10.94-5.83-20.41-12.07-28.39Z"/>
    </g>
  </g>
</svg>