<svg width="24" height="24" viewBox="0 0 24 24" fill="none" xmlns="http://www.w3.org/2000/svg">
<path d="M12 22C13.3711 22 14.6649 21.7372 15.8816 21.2116C17.0982 20.686 18.1593 19.9704 19.0647 19.0647C19.9704 18.1593 20.686 17.0982 21.2116 15.8816C21.7372 14.6649 22 13.3711 22 12C22 10.6181 21.7372 9.32149 21.2116 8.11026C20.686 6.89903 19.9704 5.8407 19.0647 4.93526C18.1593 4.02965 17.0982 3.31404 15.8816 2.78842C14.6649 2.26281 13.3711 2 12 2C10.6181 2 9.32149 2.26281 8.11026 2.78842C6.89904 3.31404 5.8407 4.02965 4.93526 4.93526C4.02965 5.8407 3.31404 6.89903 2.78842 8.11026C2.26281 9.32149 2 10.6181 2 12C2 13.3711 2.26281 14.6649 2.78842 15.8816C3.31404 17.0982 4.02965 18.1593 4.93526 19.0647C5.8407 19.9704 6.89904 20.686 8.11026 21.2116C9.32149 21.7372 10.6181 22 12 22ZM12 20.3987C11.4628 19.6862 11.0107 18.9676 10.6437 18.2429C10.2767 17.5182 9.97772 16.726 9.74684 15.8663H14.2532C14.0088 16.753 13.7064 17.5587 13.3461 18.2834C12.9859 19.0082 12.5372 19.7132 12 20.3987ZM14.0384 20.1092C14.4419 19.5303 14.8043 18.8721 15.1255 18.1347C15.4468 17.3972 15.6964 16.6411 15.8745 15.8663H19.4453C18.8893 16.9595 18.1437 17.8779 17.2084 18.6216C16.2732 19.3651 15.2165 19.861 14.0384 20.1092ZM9.96158 20.1092C8.78351 19.861 7.72684 19.3651 6.79158 18.6216C5.85632 17.8779 5.1107 16.9595 4.55474 15.8663H8.12553C8.33746 16.6477 8.60403 17.4072 8.92526 18.1447C9.24632 18.8823 9.59175 19.5371 9.96158 20.1092ZM20.1074 14.2874H16.1942C16.2604 13.8961 16.3083 13.5125 16.3382 13.1366C16.3678 12.7608 16.3826 12.3819 16.3826 12C16.3826 11.6181 16.3678 11.2392 16.3382 10.8634C16.3083 10.4875 16.2604 10.1039 16.1942 9.71263H20.1074C20.2086 10.0702 20.2861 10.4419 20.34 10.8279C20.394 11.2139 20.4211 11.6046 20.4211 12C20.4211 12.3954 20.394 12.7861 20.34 13.1721C20.2861 13.5581 20.2086 13.9298 20.1074 14.2874ZM14.6155 14.2874H9.38447C9.31851 13.8961 9.27061 13.516 9.24079 13.1468C9.21114 12.7777 9.19632 12.3954 9.19632 12C9.19632 11.6046 9.21114 11.2223 9.24079 10.8532C9.27061 10.484 9.31851 10.1039 9.38447 9.71263H14.6155C14.6815 10.1039 14.7294 10.484 14.7592 10.8532C14.7889 11.2223 14.8037 11.6046 14.8037 12C14.8037 12.3954 14.7889 12.7777 14.7592 13.1468C14.7294 13.516 14.6815 13.8961 14.6155 14.2874ZM7.80579 14.2874H3.89263C3.7914 13.9298 3.71386 13.5581 3.66 13.1721C3.60596 12.7861 3.57895 12.3954 3.57895 12C3.57895 11.6046 3.60596 11.2139 3.66 10.8279C3.71386 10.4419 3.7914 10.0702 3.89263 9.71263H7.80579C7.73965 10.1039 7.69167 10.4875 7.66184 10.8634C7.63219 11.2392 7.61737 11.6181 7.61737 12C7.61737 12.3819 7.63219 12.7608 7.66184 13.1366C7.69167 13.5125 7.73965 13.8961 7.80579 14.2874ZM8.12553 8.13368H4.55474C5.11737 7.02702 5.85789 6.1086 6.77632 5.37842C7.69474 4.64842 8.75649 4.14912 9.96158 3.88053C9.55807 4.49316 9.19912 5.16324 8.88474 5.89079C8.57018 6.61816 8.31711 7.36579 8.12553 8.13368ZM14.2532 8.13368H9.74684C9.99123 7.25368 10.2986 6.4429 10.6689 5.70132C11.0395 4.95974 11.4832 4.25974 12 3.60132C12.5168 4.25974 12.9605 4.95974 13.3311 5.70132C13.7014 6.4429 14.0088 7.25368 14.2532 8.13368ZM19.4453 8.13368H15.8745C15.6829 7.36579 15.4298 6.61816 15.1153 5.89079C14.8009 5.16324 14.4419 4.49316 14.0384 3.88053C15.2504 4.14912 16.3138 4.65018 17.2287 5.38368C18.1438 6.11702 18.8826 7.03368 19.4453 8.13368Z" fill="black"/>
</svg>
